<svg width="24" height="24" viewBox="0 0 24 24" fill="none" xmlns="http://www.w3.org/2000/svg">
<path d="M16.08 3.0953C15.8332 3.67695 14.8164 3.05546 14.1853 3.01625C13.2379 2.95712 12.2533 3.05865 11.3425 3.3318C9.18496 3.97966 6.74717 6.10834 5.65778 8.06925C4.52918 10.1015 3.52848 13.9198 4.23675 16.2805C5.30236 19.8315 10.8952 22.8143 14.3434 20.2287C16.8737 18.3301 11.6896 15.4598 13.0798 14.0702C13.6422 13.5072 15.4199 15.7445 16.08 15.9649C18.1007 16.6385 19.8276 13.7772 20.0275 12.1749C20.2691 10.2416 20.1541 7.18486 18.9227 5.54273C18.3712 4.80811 16.177 2.86714 16.08 3.0953Z" stroke="#2F2F2F" stroke-width="1.28542" stroke-miterlimit="10" stroke-linecap="round" stroke-linejoin="round"/>
<path d="M7.63256 15.4912C5.31558 15.4912 7.91988 19.0724 9.13267 17.8596C9.94827 17.044 8.41795 15.4912 7.63256 15.4912Z" stroke="#2F2F2F" stroke-width="1.28542" stroke-miterlimit="10" stroke-linecap="round" stroke-linejoin="round"/>
<path d="M9.52766 9.09564C6.96903 9.78334 7.43181 12.0431 9.60674 11.2275C10.6698 10.829 11.2064 8.64446 9.52766 9.09564Z" stroke="#2F2F2F" stroke-width="1.28542" stroke-miterlimit="10" stroke-linecap="round" stroke-linejoin="round"/>
<path d="M14.7384 7.83269C13.6393 7.70543 13.471 10.4389 15.133 9.96457C16.4287 9.59437 16.0277 7.98115 14.7384 7.83269Z" stroke="#2F2F2F" stroke-width="1.28542" stroke-miterlimit="10" stroke-linecap="round" stroke-linejoin="round"/>
</svg>
