<?xml version="1.0" encoding="utf-8"?>
<!-- Generator: Adobe Illustrator 24.1.0, SVG Export Plug-In . SVG Version: 6.00 Build 0)  -->
<svg version="1.1" xmlns="http://www.w3.org/2000/svg" xmlns:xlink="http://www.w3.org/1999/xlink" x="0px" y="0px"
	 viewBox="0 0 792 612" style="enable-background:new 0 0 792 612;" xml:space="preserve">
<style type="text/css">
	.st0{fill:#7184C1;}
	.st1{fill:#FFFFFF;}
	.st2{fill:#EECFB5;}
	.st3{fill:#919191;}
	.st4{fill:#686867;}
	.st5{fill:#6D4B3D;}
	.st6{fill:#E0E0E0;}
	.st7{fill:#492A1B;}
	.st8{fill:#351E13;}
	.st9{fill:#C1A68C;}
	.st10{fill:#E8E8E8;}
	.st11{fill:#EAEAEA;}
	.st12{fill:#C1A78C;}
</style>
<g id="Layer_5">
	<path class="st0" d="M572.16,492.5c-8.15,19.48-25.71,30.06-45.53,29.44c-272.87-8.59-429.53-365.92-269.4-405.89
		c25.49-6.36,273.81-54.84,308.61-18.07C613.86,148.7,602.5,419.96,572.16,492.5z"/>
</g>
<g id="Layer_3">
	<path class="st1" d="M469.81,232.12h-62.17c-1.42,0-2.58-1.15-2.58-2.58v-2.85c0-1.42,1.15-2.58,2.58-2.58h62.17
		c1.42,0,2.58,1.15,2.58,2.58v2.85C472.38,230.97,471.23,232.12,469.81,232.12z"/>
	<path class="st1" d="M363.71,232.15h-62.17c-1.42,0-2.58-1.15-2.58-2.58v-2.85c0-1.42,1.15-2.58,2.58-2.58h62.17
		c1.42,0,2.58,1.15,2.58,2.58v2.85C366.29,231,365.13,232.15,363.71,232.15z"/>
	<path class="st1" d="M502.98,244.54h-62.17c-1.42,0-2.58-1.15-2.58-2.58v-2.85c0-1.42,1.15-2.58,2.58-2.58h62.17
		c1.42,0,2.58,1.15,2.58,2.58v2.85C505.56,243.39,504.41,244.54,502.98,244.54z"/>
	<path class="st1" d="M543.46,185.06h-62.17c-1.42,0-2.58-1.15-2.58-2.58v-2.85c0-1.42,1.15-2.58,2.58-2.58h62.17
		c1.42,0,2.58,1.15,2.58,2.58v2.85C546.04,183.91,544.89,185.06,543.46,185.06z"/>
	<path class="st1" d="M572.02,329.61h-62.17c-1.42,0-2.58-1.15-2.58-2.58v-2.85c0-1.42,1.15-2.58,2.58-2.58h62.17
		c1.42,0,2.58,1.15,2.58,2.58v2.85C574.59,328.45,573.44,329.61,572.02,329.61z"/>
	<path d="M558.76,345.21h-62.17c-1.42,0-2.58-1.15-2.58-2.58v-2.85c0-1.42,1.15-2.58,2.58-2.58h62.17c1.42,0,2.58,1.15,2.58,2.58
		v2.85C561.33,344.06,560.18,345.21,558.76,345.21z"/>
	<path class="st1" d="M558.76,314h-62.17c-1.42,0-2.58-1.15-2.58-2.58v-2.85c0-1.42,1.15-2.58,2.58-2.58h62.17
		c1.42,0,2.58,1.15,2.58,2.58v2.85C561.33,312.85,560.18,314,558.76,314z"/>
	<path class="st1" d="M346.1,185.06h-31.23c-1.42,0-2.58-1.15-2.58-2.58v-2.85c0-1.42,1.15-2.58,2.58-2.58h31.23
		c1.42,0,2.58,1.15,2.58,2.58v2.85C348.67,183.91,347.52,185.06,346.1,185.06z"/>
	<path class="st1" d="M343.46,216.27h-31.23c-1.42,0-2.58-1.15-2.58-2.58v-2.85c0-1.42,1.15-2.58,2.58-2.58h31.23
		c1.42,0,2.58,1.15,2.58,2.58v2.85C346.04,215.12,344.88,216.27,343.46,216.27z"/>
	<path class="st1" d="M257.38,160.01h-31.23c-1.42,0-2.58-1.15-2.58-2.58v-2.85c0-1.42,1.15-2.58,2.58-2.58h31.23
		c1.42,0,2.58,1.15,2.58,2.58v2.85C259.95,158.86,258.8,160.01,257.38,160.01z"/>
	<path d="M475.37,345.51h-62.17c-1.42,0-2.58-1.15-2.58-2.58v-2.85c0-1.42,1.15-2.58,2.58-2.58h62.17c1.42,0,2.58,1.15,2.58,2.58
		v2.85C477.94,344.36,476.79,345.51,475.37,345.51z"/>
</g>
<g id="Layer_1">
	<path class="st2" d="M555.57,449.86c11.71-20.05-16.64-148.09-25.38-156.23s-59.22-10.49-73.89-19.61
		c-12.15-7.55-1.82-42.92,2.78-47.48c9.22-9.16,11.19-10.29,9.21-43.34c-1.1-18.36-36.59-42.8-59.27-43.9
		c-22.57-1.09-26.4-9.14-40.81,2.29c-15.77,12.51-14.49,51.05-12.16,65.58c5.32,33.26,8.95,4.86,16.56,31.19
		c2.94,10.18,7.23,29.62,3.1,32.74c-12.19,9.2-59.23,15.68-70.9,25.32c-11.67,9.64-32.82,156.51-10.81,164.55
		C316,469.01,543.85,469.9,555.57,449.86z"/>
	<path class="st3" d="M529.97,472.93H301.27c-17.21,0-31.16-13.95-31.16-31.16V337c0-17.21,13.95-31.16,31.16-31.16h228.71
		c17.21,0,31.16,13.95,31.16,31.16v104.77C561.13,458.98,547.18,472.93,529.97,472.93z"/>
	<path class="st4" d="M322.55,486.98h188.77c4.2,0,7.61-3.41,7.61-7.61v0c0-4.2-3.41-7.61-7.61-7.61H322.55
		c-4.2,0-7.61,3.41-7.61,7.61v0C314.94,483.57,318.35,486.98,322.55,486.98z"/>
	<path class="st1" d="M354.15,172.54h-52.6c-1.42,0-2.58-1.15-2.58-2.58v-2.85c0-1.42,1.15-2.58,2.58-2.58h52.6
		c1.42,0,2.58,1.15,2.58,2.58v2.85C356.73,171.38,355.57,172.54,354.15,172.54z"/>
	<path class="st5" d="M450.02,135.46c-16.39-7.09-42.17-0.85-42.17-0.85s-15.78-2.16-33.06,1.39s-22.34,17.22-24.88,31.4
		s-1.23,19.38,5.03,31.98c6.54,13.16,13.67,27.4,14.31,23.08c0.36-2.42,2.46-40.95,8.2-29.56c0.7,1.4,4.94,9.22,7.84,6.22
		c1.08-1.12-1.33-6.53-1.77-11.55c-0.48-5.52,0.72-4.13,0.72-4.13c2.51,3.57,8.88,17.96,14.4,12.66c2.17-2.09-2.04-3.92-2.9-10.16
		c-1.15-8.37,3.88-15.81,9.98-9.68c1.26,1.27,5.68-0.23,11.16,3.91c4.11,3.1,10.27-1.99,15.98-4.66c2.64-1.24,4.99-2.58,6.37-1.59
		c1,0.72,5.57-0.95,8.35,9.42c1.04,3.89-3.38,16.62,2.5,15.44c4.06-0.82,4.65-7.33,6.03,2.25c1.11,7.72,0.55,24.27,1.75,21.34
		c4.21-10.29,15.49-26.1,15.49-36.85C473.35,174.74,466.41,142.54,450.02,135.46z"/>
	<path class="st1" d="M288.32,172.54h-62.17c-1.42,0-2.58-1.15-2.58-2.58v-2.85c0-1.42,1.15-2.58,2.58-2.58h62.17
		c1.42,0,2.58,1.15,2.58,2.58v2.85C290.9,171.38,289.75,172.54,288.32,172.54z"/>
	<path class="st1" d="M299.02,185.06h-62.17c-1.42,0-2.58-1.15-2.58-2.58v-2.85c0-1.42,1.15-2.58,2.58-2.58h62.17
		c1.42,0,2.58,1.15,2.58,2.58v2.85C301.59,183.91,300.44,185.06,299.02,185.06z"/>
	<path class="st1" d="M301.58,216.27h-62.17c-1.42,0-2.58-1.15-2.58-2.58v-2.85c0-1.42,1.15-2.58,2.58-2.58h62.17
		c1.42,0,2.58,1.15,2.58,2.58v2.85C304.16,215.12,303.01,216.27,301.58,216.27z"/>
	<path class="st1" d="M289.32,231.88h-48.91c-1.42,0-2.58-1.15-2.58-2.58v-2.85c0-1.42,1.15-2.58,2.58-2.58h48.91
		c1.42,0,2.58,1.15,2.58,2.58v2.85C291.9,230.73,290.75,231.88,289.32,231.88z"/>
	<path class="st1" d="M288.32,200.67h-62.17c-1.42,0-2.58-1.15-2.58-2.58v-2.85c0-1.42,1.15-2.58,2.58-2.58h62.17
		c1.42,0,2.58,1.15,2.58,2.58v2.85C290.9,199.51,289.75,200.67,288.32,200.67z"/>
	<path class="st1" d="M330.05,260.21h-62.17c-1.42,0-2.58-1.15-2.58-2.58v-2.85c0-1.42,1.15-2.58,2.58-2.58h62.17
		c1.42,0,2.58,1.15,2.58,2.58v2.85C332.63,259.05,331.47,260.21,330.05,260.21z"/>
	<path class="st1" d="M330.05,272.73h-62.17c-1.42,0-2.58-1.15-2.58-2.58v-2.85c0-1.42,1.15-2.58,2.58-2.58h62.17
		c1.42,0,2.58,1.15,2.58,2.58v2.85C332.63,271.58,331.47,272.73,330.05,272.73z"/>
	<path class="st1" d="M363.71,285.25h-62.17c-1.42,0-2.58-1.15-2.58-2.58v-2.85c0-1.42,1.15-2.58,2.58-2.58h62.17
		c1.42,0,2.58,1.15,2.58,2.58v2.85C366.29,284.1,365.13,285.25,363.71,285.25z"/>
	<path class="st1" d="M374.41,297.78h-62.17c-1.42,0-2.58-1.15-2.58-2.58v-2.85c0-1.42,1.15-2.58,2.58-2.58h62.17
		c1.42,0,2.58,1.15,2.58,2.58v2.85C376.98,296.62,375.83,297.78,374.41,297.78z"/>
	<path class="st1" d="M256.22,250.79h-31.23c-1.42,0-2.58-1.15-2.58-2.58v-2.85c0-1.42,1.15-2.58,2.58-2.58h31.23
		c1.42,0,2.58,1.15,2.58,2.58v2.85C258.8,249.64,257.64,250.79,256.22,250.79z"/>
	<path class="st1" d="M543.46,172.54h-62.17c-1.42,0-2.58-1.15-2.58-2.58v-2.85c0-1.42,1.15-2.58,2.58-2.58h62.17
		c1.42,0,2.58,1.15,2.58,2.58v2.85C546.04,171.38,544.89,172.54,543.46,172.54z"/>
	<path class="st1" d="M543.46,244.54h-28.51c-1.42,0-2.58-1.15-2.58-2.58v-2.85c0-1.42,1.15-2.58,2.58-2.58h28.51
		c1.42,0,2.58,1.15,2.58,2.58v2.85C546.04,243.39,544.89,244.54,543.46,244.54z"/>
	<path class="st1" d="M509.8,204.67h-28.51c-1.42,0-2.58-1.15-2.58-2.58v-2.85c0-1.42,1.15-2.58,2.58-2.58h28.51
		c1.42,0,2.58,1.15,2.58,2.58v2.85C512.38,203.52,511.22,204.67,509.8,204.67z"/>
	<circle class="st6" cx="414.24" cy="389.55" r="23.82"/>
	<path class="st7" d="M421.4,168.8c-5.33,0.63-10.66,1.27-16,1.9"/>
	<path class="st7" d="M419.24,190.26"/>
	<path class="st7" d="M422.61,180.42"/>
	<path class="st8" d="M415.2,180.24c6.31,4.54,27.02-7.87,30.68-1.31c1.18,2.11,1.52,3.75,1.66,4.45c0.09,0.42,1.6-2.07-0.31-6.72
		c-3.89-9.46-17.23-5.46-26.38,1.45c-2.38,1.8-7.89-12.02-19.18-5.92c-1.36,0.74-6.11,4.1-6.03,9.19c0,0,4.18-5.11,9.59-4.49
		C408.54,177.28,412.27,178.13,415.2,180.24z"/>
</g>
<g id="Layer_2">
	<path class="st9" d="M370.36,273.15c9.44-4.52,5.63-19.25,4.79-24.7c3.39,4.26,21.75,30.41,27.42,31.32
		c4.5,0.72,18.62,2.3,23.99-1.74c5.37-4.04,24.51-26.49,24.51-26.49c0.27,0.04-2.76,20.95,7.13,25.52
		c4.35,2.01-8.55,23.73-13.91,25.85c-5.36,2.12-46.07,1.74-50.71-0.51C388.93,300.15,365.58,275.43,370.36,273.15z"/>
</g>
<g id="Layer_4">
	<path class="st10" d="M304.47,293.77l46.98-14.36c0.83-0.33,1.46-0.98,1.74-1.78l5.97-17.09c0.73-2.08,3.55-2.7,5.18-1.13
		l30.34,29.15c0.17,0.17,0.37,0.31,0.58,0.44l13.93,8.15c0.09,0.05,0.18,0.11,0.27,0.17l7.85,5.74c1.33,0.97,3.23,0.78,4.31-0.44
		l40.99-46.42c1.47-1.66,4.29-1.3,5.23,0.67l8.24,17.28c0.31,0.65,0.86,1.17,1.55,1.46l49.26,15.93c3.04,1.3,10.99,14.43,7.65,14.43
		H299.79C296.4,306,301.35,295.01,304.47,293.77z"/>
	<path class="st11" d="M525.97,726.66"/>
	<path class="st12" d="M406.83,220c2.33-8.43-0.02-5.7-6.32-7.95c-6.21-2.23-8.69-1.9-12.36-1.61c-4.19,0.33-5,0.66-10.24,1.53
		c-1.59,0.26-2.26,2.03,3.81,2.01C396.66,213.93,404.3,229.14,406.83,220z"/>
	<path class="st12" d="M422.01,222.93c-3.44,2.04-4.73-7.15-0.1-8.25c11.01-2.62,9.62-2.39,15.74-2.62
		c5.74-0.22,11.78,5.89,10.04,6.32C440.96,220.06,436.46,214.35,422.01,222.93z"/>
	<path class="st12" d="M409.72,243.09c1.6,0.88,4.58,2.78,8.66,1.11c4.77-1.96-2.3,3.39-5.45,3.39S406.73,241.43,409.72,243.09z"/>
</g>
</svg>
