<svg width="16" height="16" viewBox="0 0 16 16" fill="none" xmlns="http://www.w3.org/2000/svg">
<path d="M4.31997 5.88439L1.78122 8.00002L4.31997 10.1156C4.37188 10.1572 4.41497 10.2087 4.44674 10.2671C4.4785 10.3255 4.4983 10.3896 4.50497 10.4558C4.51165 10.5219 4.50506 10.5888 4.4856 10.6523C4.46614 10.7159 4.43419 10.775 4.39164 10.826C4.34908 10.8771 4.29676 10.9192 4.23774 10.9498C4.17872 10.9804 4.11419 10.999 4.04793 11.0043C3.98166 11.0097 3.91498 11.0018 3.8518 10.9811C3.78862 10.9604 3.73021 10.9273 3.67997 10.8838L0.679972 8.38377C0.62368 8.33684 0.578391 8.27812 0.547311 8.21175C0.516232 8.14538 0.500122 8.07299 0.500122 7.9997C0.500122 7.92642 0.516232 7.85403 0.547311 7.78766C0.578391 7.72129 0.62368 7.66257 0.679972 7.61564L3.67997 5.11564C3.78191 5.03077 3.9134 4.98988 4.04549 5.00195C4.17759 5.01402 4.29948 5.07807 4.38435 5.18002C4.46922 5.28196 4.51011 5.41344 4.49804 5.54554C4.48597 5.67763 4.42191 5.79952 4.31997 5.88439ZM15.32 7.61564L12.32 5.11564C12.2695 5.07362 12.2112 5.04195 12.1485 5.02244C12.0858 5.00293 12.0199 4.99597 11.9545 5.00195C11.889 5.00793 11.8255 5.02673 11.7673 5.05728C11.7092 5.08783 11.6576 5.12954 11.6156 5.18002C11.5307 5.28196 11.4898 5.41344 11.5019 5.54554C11.514 5.67763 11.578 5.79952 11.68 5.88439L14.2187 8.00002L11.68 10.1156C11.6281 10.1572 11.585 10.2087 11.5532 10.2671C11.5214 10.3255 11.5016 10.3896 11.495 10.4558C11.4883 10.5219 11.4949 10.5888 11.5143 10.6523C11.5338 10.7159 11.5657 10.775 11.6083 10.826C11.6509 10.8771 11.7032 10.9192 11.7622 10.9498C11.8212 10.9804 11.8858 10.999 11.952 11.0043C12.0183 11.0097 12.085 11.0018 12.1481 10.9811C12.2113 10.9604 12.2697 10.9273 12.32 10.8838L15.32 8.38377C15.3763 8.33684 15.4216 8.27812 15.4526 8.21175C15.4837 8.14538 15.4998 8.07299 15.4998 7.9997C15.4998 7.92642 15.4837 7.85403 15.4526 7.78766C15.4216 7.72129 15.3763 7.66257 15.32 7.61564ZM10.1706 2.03002C10.1089 2.00761 10.0433 1.99758 9.97775 2.00049C9.91215 2.00341 9.84777 2.01922 9.78828 2.04702C9.72879 2.07482 9.67536 2.11407 9.63104 2.16252C9.58672 2.21096 9.55238 2.26767 9.52997 2.32939L5.52997 13.3294C5.50747 13.3911 5.49736 13.4567 5.50023 13.5224C5.5031 13.5881 5.51889 13.6525 5.5467 13.7121C5.5745 13.7717 5.61378 13.8251 5.66228 13.8695C5.71078 13.9139 5.76755 13.9482 5.82935 13.9706C5.88413 13.9901 5.94184 14 5.99997 14C6.10265 14 6.20285 13.9684 6.28694 13.9095C6.37102 13.8505 6.43493 13.7672 6.46997 13.6706L10.47 2.67064C10.4924 2.60892 10.5024 2.54339 10.4995 2.47779C10.4966 2.41219 10.4808 2.34781 10.453 2.28832C10.4252 2.22884 10.3859 2.17541 10.3375 2.13109C10.289 2.08677 10.2323 2.05242 10.1706 2.03002Z" fill="#EEEEF0"/>
</svg>
