<svg xmlns="http://www.w3.org/2000/svg" viewBox="0 0 511.99612 407.04237"><g id="Layer_2" data-name="Layer 2"><g id="Layer_1-2" data-name="Layer 1"><path d="M506.7595,190.35038l-118.4-125.44a19.19818,19.19818,0,1,0-27.923,26.355l105.965,112.256-105.965,112.269a19.20266,19.20266,0,0,0,27.924,26.367l118.4-125.446A19.20717,19.20717,0,0,0,506.7595,190.35038Z"/><path d="M151.56549,315.78437l-105.958-112.263,105.958-112.262a19.20036,19.20036,0,1,0-27.929-26.355l-118.4,125.44a19.20747,19.20747,0,0,0,0,26.362l118.406,125.446a19.20265,19.20265,0,0,0,27.923-26.368Z"/><path d="M287.0605.21938a19.221,19.221,0,0,0-21.882,16.083l-56.32,368.64a19.20385,19.20385,0,0,0,16.083,21.882,19.77715,19.77715,0,0,0,2.925.218,19.20535,19.20535,0,0,0,18.957-16.301l56.32-368.64A19.20335,19.20335,0,0,0,287.0605.21938Z"/></g></g></svg>