<svg width="16" height="16" viewBox="0 0 16 16" fill="none" xmlns="http://www.w3.org/2000/svg">
<path d="M10.655 7.23125C11.0345 6.86585 11.301 6.39914 11.423 5.88662C11.5449 5.3741 11.517 4.83736 11.3427 4.34023C11.1683 3.84309 10.8549 3.4065 10.4396 3.08237C10.0243 2.75825 9.52459 2.56023 9 2.51187V1.5C9 1.36739 8.94732 1.24021 8.85355 1.14645C8.75979 1.05268 8.63261 1 8.5 1C8.36739 1 8.24021 1.05268 8.14645 1.14645C8.05268 1.24021 8 1.36739 8 1.5V2.5H7V1.5C7 1.36739 6.94732 1.24021 6.85355 1.14645C6.75979 1.05268 6.63261 1 6.5 1C6.36739 1 6.24021 1.05268 6.14645 1.14645C6.05268 1.24021 6 1.36739 6 1.5V2.5H4C3.86739 2.5 3.74021 2.55268 3.64645 2.64645C3.55268 2.74021 3.5 2.86739 3.5 3C3.5 3.13261 3.55268 3.25979 3.64645 3.35355C3.74021 3.44732 3.86739 3.5 4 3.5H4.5V12H4C3.86739 12 3.74021 12.0527 3.64645 12.1464C3.55268 12.2402 3.5 12.3674 3.5 12.5C3.5 12.6326 3.55268 12.7598 3.64645 12.8536C3.74021 12.9473 3.86739 13 4 13H6V14C6 14.1326 6.05268 14.2598 6.14645 14.3536C6.24021 14.4473 6.36739 14.5 6.5 14.5C6.63261 14.5 6.75979 14.4473 6.85355 14.3536C6.94732 14.2598 7 14.1326 7 14V13H8V14C8 14.1326 8.05268 14.2598 8.14645 14.3536C8.24021 14.4473 8.36739 14.5 8.5 14.5C8.63261 14.5 8.75979 14.4473 8.85355 14.3536C8.94732 14.2598 9 14.1326 9 14V13H9.5C10.1934 13 10.8654 12.7598 11.4017 12.3202C11.938 11.8807 12.3055 11.2689 12.4416 10.589C12.5778 9.90904 12.4741 9.20295 12.1484 8.59079C11.8227 7.97863 11.295 7.49822 10.655 7.23125ZM10.5 5.25C10.5 5.71413 10.3156 6.15925 9.98744 6.48744C9.65925 6.81563 9.21413 7 8.75 7H5.5V3.5H8.75C9.21413 3.5 9.65925 3.68437 9.98744 4.01256C10.3156 4.34075 10.5 4.78587 10.5 5.25ZM9.5 12H5.5V8H9.5C10.0304 8 10.5391 8.21071 10.9142 8.58579C11.2893 8.96086 11.5 9.46957 11.5 10C11.5 10.5304 11.2893 11.0391 10.9142 11.4142C10.5391 11.7893 10.0304 12 9.5 12Z" fill="#EEEEF0"/>
</svg>
