<svg width="24" height="24" viewBox="0 0 24 24" fill="none" xmlns="http://www.w3.org/2000/svg">
<path d="M19.7498 7.26547C19.9581 7.05561 19.9631 7.03627 20.3004 7.00551C20.4394 6.99311 20.866 7.00551 20.7221 7.00551C20.36 7.00551 19.5513 6.99111 19.3281 7.33046C19.1892 7.53436 19.5414 8.6953 19.8143 8.6953C19.9681 8.6953 20.2161 8.4656 20.3996 8.43534C21.2331 8.29593 21.0893 8.12427 20.6279 7.20049" stroke="#2F2F2F" stroke-width="0.99224" stroke-miterlimit="10" stroke-linecap="round" stroke-linejoin="round"/>
<path d="M7.33715 15.3567C7.33715 13.985 7.15854 12.6692 7.88783 11.3922C9.83759 7.98536 14.3175 7.58747 16.9222 10.5151C18.0285 11.7628 18.0286 13.7141 18.0286 15.259" stroke="#2F2F2F" stroke-width="0.99224" stroke-miterlimit="10" stroke-linecap="round" stroke-linejoin="round"/>
<path d="M11.266 8.01313C11.2611 8.00321 11.3801 8.81785 11.4297 9.08526C11.4446 9.16067 11.5389 9.31297 11.4644 9.31297C11.4049 9.31297 11.1866 8.03694 11.2362 7.91539C11.3305 7.67279 12.2831 7.61575 12.4716 7.59045C12.4964 7.58697 13.2158 7.48029 13.2505 7.52543C13.32 7.62019 13.2902 8.15055 13.315 8.27309C13.3547 8.46609 13.6821 9.46626 13.5085 9.63743C13.4737 9.67265 13.3597 9.6776 13.315 9.67016C12.3873 9.51587 11.0676 9.90235 12.2434 9.11799" stroke="#2F2F2F" stroke-width="0.99224" stroke-miterlimit="10" stroke-linecap="round" stroke-linejoin="round"/>
<path d="M4.99536 8.66306C8.43347 8.28105 11.9708 8.22896 15.4287 8.01314C16.8972 7.92087 18.7577 8.15998 20.1717 7.68817" stroke="#2F2F2F" stroke-width="0.99224" stroke-miterlimit="10" stroke-linecap="round" stroke-linejoin="round"/>
<path d="M5.01018 8.159C3.61608 7.23721 4.06259 9.52978 4.0874 9.5402C4.3553 9.64835 4.88124 9.4102 5.18883 9.4102C5.20372 9.4102 5.77422 9.41913 5.77422 9.37796C5.77422 8.97461 5.12428 8.23392 5.01018 8.159Z" stroke="#2F2F2F" stroke-width="0.99224" stroke-miterlimit="10" stroke-linecap="round" stroke-linejoin="round"/>
<path d="M7.65948 16.0389C7.16832 16.0389 6.75654 15.7114 6.23065 15.9089C6.07685 15.9664 6.08182 17.2052 6.23065 17.3064C6.28523 17.3427 6.36461 17.2945 6.42415 17.2737C7.08399 17.0544 8.05636 17.2702 8.63682 16.9815C8.76085 16.918 8.23994 15.9629 8.21513 15.8439C8.19529 15.767 8.22505 15.632 8.15064 15.6167C8.03157 15.5928 6.35961 15.8766 6.20086 15.9089" stroke="#2F2F2F" stroke-width="0.99224" stroke-miterlimit="10" stroke-linecap="round" stroke-linejoin="round"/>
<path d="M16.8872 15.6489C17.0757 15.3711 17.8645 15.5189 18.1572 15.5189C18.3606 15.5189 18.9759 15.5368 18.7725 15.4867C18.2119 15.3458 17.3684 15.4232 16.7929 15.5189C16.7482 15.5264 16.6739 15.509 16.664 15.5517C16.6292 15.6449 16.9368 15.9446 16.9517 16.0716C17.0013 16.3837 16.5944 16.8386 16.8574 17.0137C16.9318 17.0628 19.591 16.7796 19.6208 16.7538C19.72 16.6511 19.338 16.345 19.3281 16.3316C19.0751 16.0324 19.0602 15.699 18.9014 15.3889" stroke="#2F2F2F" stroke-width="0.99224" stroke-miterlimit="10" stroke-linecap="round" stroke-linejoin="round"/>
</svg>
