<svg width="783" height="773" viewBox="0 0 783 773" fill="none" xmlns="http://www.w3.org/2000/svg">
<path d="M0.96875 8.07812V6H13.3516V8.07812H8.35938V22H5.95313V8.07812H0.96875ZM16.002 26.5C15.653 26.5 15.3353 26.4714 15.0488 26.4141C14.7624 26.362 14.5488 26.3047 14.4082 26.2422L14.9707 24.3281C15.3978 24.4427 15.778 24.4922 16.1113 24.4766C16.4447 24.4609 16.7389 24.3359 16.9941 24.1016C17.2546 23.8672 17.4837 23.4844 17.6816 22.9531L17.9707 22.1563L13.5801 10H16.0801L19.1191 19.3125H19.2441L22.2832 10H24.791L19.8457 23.6016C19.6165 24.2266 19.3249 24.7552 18.9707 25.1875C18.6165 25.625 18.1947 25.9531 17.7051 26.1719C17.2155 26.3906 16.6478 26.5 16.002 26.5ZM29.3223 6V22H26.9863V6H29.3223ZM37.6367 22.2422C36.4544 22.2422 35.4362 21.9896 34.582 21.4844C33.7331 20.974 33.0768 20.2578 32.6133 19.3359C32.1549 18.4089 31.9258 17.3229 31.9258 16.0781C31.9258 14.849 32.1549 13.7656 32.6133 12.8281C33.0768 11.8906 33.7227 11.1589 34.5508 10.6328C35.3841 10.1068 36.3581 9.84375 37.4727 9.84375C38.1497 9.84375 38.806 9.95573 39.4414 10.1797C40.0768 10.4036 40.6471 10.7552 41.1523 11.2344C41.6576 11.7135 42.056 12.3359 42.3477 13.1016C42.6393 13.862 42.7852 14.7865 42.7852 15.875V16.7031H33.2461V14.9531H40.4961C40.4961 14.3385 40.3711 13.7943 40.1211 13.3203C39.8711 12.8411 39.5195 12.4635 39.0664 12.1875C38.6185 11.9115 38.0924 11.7734 37.4883 11.7734C36.832 11.7734 36.2591 11.9349 35.7695 12.2578C35.2852 12.5755 34.9102 12.9922 34.6445 13.5078C34.3841 14.0182 34.2539 14.5729 34.2539 15.1719V16.5391C34.2539 17.3411 34.3945 18.0234 34.6758 18.5859C34.9622 19.1484 35.3607 19.5781 35.8711 19.875C36.3815 20.1667 36.9779 20.3125 37.6602 20.3125C38.1029 20.3125 38.5065 20.25 38.8711 20.125C39.2357 19.9948 39.5508 19.8021 39.8164 19.5469C40.082 19.2917 40.2852 18.9766 40.4258 18.6016L42.6367 19C42.4596 19.651 42.1419 20.2214 41.6836 20.7109C41.2305 21.1953 40.6602 21.5729 39.9727 21.8437C39.2904 22.1094 38.5117 22.2422 37.6367 22.2422ZM45.377 22V10H47.6348V11.9062H47.7598C47.9785 11.2604 48.3639 10.7526 48.916 10.3828C49.4733 10.0078 50.1035 9.82031 50.8066 9.82031C50.9525 9.82031 51.1243 9.82552 51.3223 9.83594C51.5254 9.84635 51.6842 9.85937 51.7988 9.875V12.1094C51.7051 12.0833 51.5384 12.0547 51.2988 12.0234C51.0592 11.987 50.8197 11.9687 50.5801 11.9687C50.028 11.9687 49.5358 12.0859 49.1035 12.3203C48.6764 12.5495 48.3379 12.8698 48.0879 13.2812C47.8379 13.6875 47.7129 14.151 47.7129 14.6719V22H45.377ZM62.3906 22V23.9844H52.2266V22H62.3906ZM70.3457 6H72.752V17.3437C72.752 18.3698 72.5488 19.2474 72.1426 19.9766C71.7415 20.7057 71.1764 21.263 70.4473 21.6484C69.7181 22.0286 68.8639 22.2187 67.8848 22.2187C66.9837 22.2187 66.1738 22.0547 65.4551 21.7266C64.7415 21.3984 64.1764 20.9219 63.7598 20.2969C63.3483 19.6667 63.1426 18.901 63.1426 18H65.541C65.541 18.4427 65.6426 18.8255 65.8457 19.1484C66.054 19.4714 66.3379 19.724 66.6973 19.9062C67.0618 20.0833 67.4785 20.1719 67.9473 20.1719C68.4577 20.1719 68.89 20.0651 69.2441 19.8516C69.6035 19.6328 69.877 19.3125 70.0645 18.8906C70.252 18.4687 70.3457 17.9531 70.3457 17.3437V6ZM79.5703 22.2656C78.8099 22.2656 78.1224 22.125 77.5078 21.8437C76.8932 21.5573 76.4063 21.1432 76.0469 20.6016C75.6927 20.0599 75.5156 19.3958 75.5156 18.6094C75.5156 17.9323 75.6458 17.375 75.9063 16.9375C76.1667 16.5 76.5182 16.1536 76.9609 15.8984C77.4036 15.6432 77.8984 15.4505 78.4453 15.3203C78.9922 15.1901 79.5495 15.0911 80.1172 15.0234C80.8359 14.9401 81.4193 14.8724 81.8672 14.8203C82.3151 14.763 82.6406 14.6719 82.8438 14.5469C83.0469 14.4219 83.1484 14.2187 83.1484 13.9375V13.8828C83.1484 13.2005 82.9557 12.6719 82.5703 12.2969C82.1901 11.9219 81.6224 11.7344 80.8672 11.7344C80.0807 11.7344 79.4609 11.9089 79.0078 12.2578C78.5599 12.6016 78.25 12.9844 78.0781 13.4062L75.8828 12.9062C76.1432 12.1771 76.5234 11.5885 77.0234 11.1406C77.5286 10.6875 78.1094 10.3594 78.7656 10.1562C79.4219 9.94792 80.112 9.84375 80.8359 9.84375C81.3151 9.84375 81.8229 9.90104 82.3594 10.0156C82.901 10.125 83.4063 10.3281 83.875 10.625C84.349 10.9219 84.737 11.3464 85.0391 11.8984C85.3411 12.4453 85.4922 13.1563 85.4922 14.0313V22H83.2109V20.3594H83.1172C82.9661 20.6615 82.7396 20.9583 82.4375 21.25C82.1354 21.5417 81.7474 21.7839 81.2734 21.9766C80.7995 22.1693 80.2318 22.2656 79.5703 22.2656ZM80.0781 20.3906C80.724 20.3906 81.276 20.263 81.7344 20.0078C82.1979 19.7526 82.5495 19.4193 82.7891 19.0078C83.0339 18.5911 83.1563 18.1458 83.1563 17.6719V16.125C83.0729 16.2083 82.9115 16.2865 82.6719 16.3594C82.4375 16.4271 82.1693 16.487 81.8672 16.5391C81.5651 16.5859 81.2708 16.6302 80.9844 16.6719C80.6979 16.7083 80.4583 16.7396 80.2656 16.7656C79.8125 16.8229 79.3984 16.9193 79.0234 17.0547C78.6536 17.1901 78.3568 17.3854 78.1328 17.6406C77.9141 17.8906 77.8047 18.224 77.8047 18.6406C77.8047 19.2187 78.0182 19.6562 78.4453 19.9531C78.8724 20.2448 79.4167 20.3906 80.0781 20.3906ZM88.6035 22V10H90.8457V11.9531H90.9941C91.2441 11.2917 91.653 10.776 92.2207 10.4063C92.7884 10.0313 93.4681 9.84375 94.2598 9.84375C95.0618 9.84375 95.7337 10.0313 96.2754 10.4063C96.8223 10.7812 97.2259 11.2969 97.4863 11.9531H97.6113C97.8978 11.3125 98.3535 10.8021 98.9785 10.4219C99.6035 10.0365 100.348 9.84375 101.213 9.84375C102.301 9.84375 103.189 10.1849 103.877 10.8672C104.57 11.5495 104.916 12.5781 104.916 13.9531V22H102.58V14.1719C102.58 13.3594 102.359 12.7708 101.916 12.4062C101.473 12.0417 100.945 11.8594 100.33 11.8594C99.5697 11.8594 98.9785 12.0937 98.5566 12.5625C98.1348 13.026 97.9238 13.6224 97.9238 14.3516V22H95.5957V14.0234C95.5957 13.3724 95.3926 12.849 94.9863 12.4531C94.5801 12.0573 94.0514 11.8594 93.4004 11.8594C92.9577 11.8594 92.5488 11.9766 92.1738 12.2109C91.804 12.4401 91.5046 12.7604 91.2754 13.1719C91.0514 13.5833 90.9395 14.0599 90.9395 14.6016V22H88.6035ZM113.219 22.2422C112.036 22.2422 111.018 21.9896 110.164 21.4844C109.315 20.974 108.659 20.2578 108.195 19.3359C107.737 18.4089 107.508 17.3229 107.508 16.0781C107.508 14.849 107.737 13.7656 108.195 12.8281C108.659 11.8906 109.305 11.1589 110.133 10.6328C110.966 10.1068 111.94 9.84375 113.055 9.84375C113.732 9.84375 114.388 9.95573 115.023 10.1797C115.659 10.4036 116.229 10.7552 116.734 11.2344C117.24 11.7135 117.638 12.3359 117.93 13.1016C118.221 13.862 118.367 14.7865 118.367 15.875V16.7031H108.828V14.9531H116.078C116.078 14.3385 115.953 13.7943 115.703 13.3203C115.453 12.8411 115.102 12.4635 114.648 12.1875C114.201 11.9115 113.674 11.7734 113.07 11.7734C112.414 11.7734 111.841 11.9349 111.352 12.2578C110.867 12.5755 110.492 12.9922 110.227 13.5078C109.966 14.0182 109.836 14.5729 109.836 15.1719V16.5391C109.836 17.3411 109.977 18.0234 110.258 18.5859C110.544 19.1484 110.943 19.5781 111.453 19.875C111.964 20.1667 112.56 20.3125 113.242 20.3125C113.685 20.3125 114.089 20.25 114.453 20.125C114.818 19.9948 115.133 19.8021 115.398 19.5469C115.664 19.2917 115.867 18.9766 116.008 18.6016L118.219 19C118.042 19.651 117.724 20.2214 117.266 20.7109C116.813 21.1953 116.242 21.5729 115.555 21.8437C114.872 22.1094 114.094 22.2422 113.219 22.2422ZM129.951 12.9297L127.834 13.3047C127.745 13.0339 127.605 12.776 127.412 12.5312C127.225 12.2865 126.969 12.0859 126.646 11.9297C126.324 11.7734 125.92 11.6953 125.436 11.6953C124.774 11.6953 124.222 11.8437 123.779 12.1406C123.337 12.4323 123.115 12.8099 123.115 13.2734C123.115 13.6745 123.264 13.9974 123.561 14.2422C123.857 14.487 124.337 14.6875 124.998 14.8437L126.904 15.2812C128.008 15.5365 128.831 15.9297 129.373 16.4609C129.915 16.9922 130.186 17.6823 130.186 18.5313C130.186 19.25 129.977 19.8906 129.561 20.4531C129.149 21.0104 128.574 21.4479 127.834 21.7656C127.1 22.0833 126.248 22.2422 125.279 22.2422C123.936 22.2422 122.839 21.9557 121.99 21.3828C121.141 20.8047 120.62 19.9844 120.428 18.9219L122.686 18.5781C122.826 19.1667 123.115 19.612 123.553 19.9141C123.99 20.2109 124.561 20.3594 125.264 20.3594C126.029 20.3594 126.641 20.2005 127.1 19.8828C127.558 19.5599 127.787 19.1667 127.787 18.7031C127.787 18.3281 127.646 18.013 127.365 17.7578C127.089 17.5026 126.665 17.3099 126.092 17.1797L124.061 16.7344C122.941 16.4792 122.113 16.0729 121.576 15.5156C121.045 14.9583 120.779 14.2526 120.779 13.3984C120.779 12.6901 120.977 12.0703 121.373 11.5391C121.769 11.0078 122.316 10.5937 123.014 10.2969C123.712 9.99479 124.511 9.84375 125.412 9.84375C126.709 9.84375 127.73 10.125 128.475 10.6875C129.219 11.2448 129.712 11.9922 129.951 12.9297ZM141.324 22V23.9844H131.16V22H141.324ZM143.061 22V6H148.92C150.055 6 150.995 6.1875 151.74 6.5625C152.485 6.93229 153.042 7.4349 153.412 8.07031C153.782 8.70052 153.967 9.41146 153.967 10.2031C153.967 10.8698 153.844 11.4323 153.6 11.8906C153.355 12.3437 153.027 12.7083 152.615 12.9844C152.209 13.2552 151.761 13.4531 151.271 13.5781V13.7344C151.803 13.7604 152.321 13.9323 152.826 14.25C153.337 14.5625 153.758 15.0078 154.092 15.5859C154.425 16.1641 154.592 16.8672 154.592 17.6953C154.592 18.513 154.399 19.2474 154.014 19.8984C153.633 20.5443 153.045 21.0573 152.248 21.4375C151.451 21.8125 150.433 22 149.193 22H143.061ZM145.475 19.9297H148.959C150.115 19.9297 150.943 19.7057 151.443 19.2578C151.943 18.8099 152.193 18.25 152.193 17.5781C152.193 17.0729 152.066 16.6094 151.811 16.1875C151.555 15.7656 151.191 15.4297 150.717 15.1797C150.248 14.9297 149.691 14.8047 149.045 14.8047H145.475V19.9297ZM145.475 12.9219H148.709C149.251 12.9219 149.738 12.8177 150.17 12.6094C150.607 12.401 150.954 12.1094 151.209 11.7344C151.469 11.3542 151.6 10.9062 151.6 10.3906C151.6 9.72917 151.368 9.17448 150.904 8.72656C150.441 8.27865 149.73 8.05469 148.771 8.05469H145.475V12.9219ZM164.869 17.0234V10H167.213V22H164.916V19.9219H164.791C164.515 20.5625 164.072 21.0964 163.463 21.5234C162.859 21.9453 162.106 22.1563 161.205 22.1563C160.434 22.1563 159.752 21.987 159.158 21.6484C158.57 21.3047 158.106 20.7969 157.768 20.125C157.434 19.4531 157.268 18.6224 157.268 17.6328V10H159.604V17.3516C159.604 18.1693 159.83 18.8203 160.283 19.3047C160.736 19.7891 161.325 20.0312 162.049 20.0312C162.486 20.0312 162.921 19.9219 163.354 19.7031C163.791 19.4844 164.153 19.1536 164.439 18.7109C164.731 18.2682 164.874 17.7057 164.869 17.0234ZM170.352 22V10H172.609V11.9062H172.734C172.953 11.2604 173.339 10.7526 173.891 10.3828C174.448 10.0078 175.078 9.82031 175.781 9.82031C175.927 9.82031 176.099 9.82552 176.297 9.83594C176.5 9.84635 176.659 9.85937 176.773 9.875V12.1094C176.68 12.0833 176.513 12.0547 176.273 12.0234C176.034 11.987 175.794 11.9687 175.555 11.9687C175.003 11.9687 174.51 12.0859 174.078 12.3203C173.651 12.5495 173.313 12.8698 173.063 13.2812C172.813 13.6875 172.688 14.151 172.688 14.6719V22H170.352ZM180.943 17.9297L180.928 15.0781H181.334L186.115 10H188.912L183.459 15.7812H183.092L180.943 17.9297ZM178.795 22V6H181.131V22H178.795ZM186.373 22L182.076 16.2969L183.686 14.6641L189.24 22H186.373ZM195.719 22.2422C194.536 22.2422 193.518 21.9896 192.664 21.4844C191.815 20.974 191.159 20.2578 190.695 19.3359C190.237 18.4089 190.008 17.3229 190.008 16.0781C190.008 14.849 190.237 13.7656 190.695 12.8281C191.159 11.8906 191.805 11.1589 192.633 10.6328C193.466 10.1068 194.44 9.84375 195.555 9.84375C196.232 9.84375 196.888 9.95573 197.523 10.1797C198.159 10.4036 198.729 10.7552 199.234 11.2344C199.74 11.7135 200.138 12.3359 200.43 13.1016C200.721 13.862 200.867 14.7865 200.867 15.875V16.7031H191.328V14.9531H198.578C198.578 14.3385 198.453 13.7943 198.203 13.3203C197.953 12.8411 197.602 12.4635 197.148 12.1875C196.701 11.9115 196.174 11.7734 195.57 11.7734C194.914 11.7734 194.341 11.9349 193.852 12.2578C193.367 12.5755 192.992 12.9922 192.727 13.5078C192.466 14.0182 192.336 14.5729 192.336 15.1719V16.5391C192.336 17.3411 192.477 18.0234 192.758 18.5859C193.044 19.1484 193.443 19.5781 193.953 19.875C194.464 20.1667 195.06 20.3125 195.742 20.3125C196.185 20.3125 196.589 20.25 196.953 20.125C197.318 19.9948 197.633 19.8021 197.898 19.5469C198.164 19.2917 198.367 18.9766 198.508 18.6016L200.719 19C200.542 19.651 200.224 20.2214 199.766 20.7109C199.313 21.1953 198.742 21.5729 198.055 21.8437C197.372 22.1094 196.594 22.2422 195.719 22.2422Z" fill="#60A5FA"/>
<g clip-path="url(#clip0_15_11350)">
<rect x="8" y="44" width="640" height="640" rx="320" fill="url(#paint0_linear_15_11350)"/>
<g filter="url(#filter0_d_15_11350)">
<path d="M306.774 282.963C307.33 286.486 319.495 255.356 315.202 258.551L306.774 282.963Z" fill="#6D4B3D"/>
<path d="M352.093 629.596C381.67 577.412 468.731 607.805 446.707 586.587C424.683 565.369 482.088 549.477 441.141 534.076C428.261 529.242 416.176 564.55 413.791 552.18C410.372 552.18 407.271 548.084 403.057 536.615C400.593 511.465 402.58 470.832 402.58 470.832C402.58 470.832 412.042 456.824 413.791 450.68C422.298 420.861 416.494 428.152 427.466 400.38C429.136 400.38 464 362.5 460.541 332.304C445.276 312.233 421.026 336.973 445.276 319.115C445.276 319.115 456.009 286.264 454.737 278.564C452.034 261.77 416.176 188.205 321.801 183.453C264.873 180.586 254.299 181.405 223.211 197.216C189.818 214.174 211.524 283.561 208.343 314.445C207.787 319.852 222.655 333.697 212.08 328.29C218.202 334.925 205.481 324.931 212.08 328.29C207.866 323.702 194.341 348.527 192 356.5C203.5 399 214.704 405.869 222.496 411.44C244.758 427.356 222.019 376.787 226.709 374.903C221 400.5 224 403 226.709 411.44C229.651 426.104 238.318 453.875 238.318 453.875L244.758 462.64C253.504 485.251 268 548 244.758 562.011C213.352 585.031 283.398 554.146 253.901 579.214C224.483 604.282 217.487 581.59 272.983 602.562C328.638 623.533 322.516 681.697 352.093 629.596Z" fill="url(#paint1_linear_15_11350)"/>
<path d="M231.798 301.174C248.176 257.264 295.324 223.103 310.749 239.078C313.929 242.355 320.131 226.544 333.886 237.276C344.222 245.304 361.793 259.067 376.263 252.103C382.942 248.908 390.415 248.745 393.914 251.284C396.458 253.168 407.987 248.826 414.983 275.779C417.607 285.937 419.674 307.482 434.463 304.369C444.719 302.239 433.031 296.914 436.45 321.818C439.233 341.889 435.973 322.064 437.404 319.033C449.569 292.982 454.34 302.075 448.058 272.665C444.242 254.725 447.82 197.79 406.476 179.357C365.132 160.925 279.343 159.614 279.343 159.614C286.261 130.778 231.241 127.173 218.282 157.32C216.294 162.891 205.481 181.078 198.802 181.078C199.756 185.338 212.716 177.227 205.719 184.928C187.274 215.157 174.393 194.513 171.452 225.233C170.816 232.278 170.418 238.341 170.339 243.502C170.259 249.482 169.066 271.109 172.644 275.287C174.075 277.007 173.36 266.439 175.586 269.88C182.106 280.202 193.396 285.773 202.301 311.906" fill="url(#paint2_linear_15_11350)"/>
<path d="M336.748 644.114C340.326 623.634 405.416 548.544 405.416 548.544C398.976 536.151 401.944 487.357 401.944 487.357C407.616 487.357 422.219 505.28 482.247 519.207C482.247 530.266 467.538 532.724 467.538 532.724C467.538 532.724 600.713 559.348 619 665.027C612.905 744.182 494.722 790.465 370.497 799.476C258.838 825.358 70 759.646 70 683.868C70 604.815 133.538 578.381 186.479 552.795C185.286 552.795 172.285 548.834 173.757 543.374C207.151 534.772 254 493.314 254 497C254 497 259.5 519.5 254.62 548.464" fill="url(#paint3_radial_15_11350)"/>
<path d="M449.649 373.838C449.649 373.838 465.55 340.578 449.649 334.761C439.79 330.502 433.509 315.1 429.295 327.143L404.33 330.993L425.638 354.832C427.943 354.341 435.338 369.168 432.555 379.654L427.466 400.135C428.579 402.101 442.255 386.781 443.686 384.897C444.56 383.586 447.82 377.688 449.649 373.838Z" fill="url(#paint4_linear_15_11350)"/>
<path d="M199.347 352.071C199.347 352.071 201.783 347.908 210.847 343.32C219.911 338.733 224.023 351.661 224.5 352.071V361.655C228.157 362.393 224.5 373.206 224.5 375.5C224.5 385.003 227.847 415.32 227.847 415.32C227.847 415.32 220.347 411.32 210.847 394.32C188.267 360.732 199.347 352.071 199.347 352.071Z" fill="url(#paint5_linear_15_11350)"/>
<path fill-rule="evenodd" clip-rule="evenodd" d="M312.61 284.794C303.025 296.855 289.032 314.464 297.789 335.663C297.9 337.875 297.817 339.962 297.56 341.93C302.505 340.296 307.376 339.448 312.18 341.398C324.186 347.706 328.4 350.491 330.705 377.197C331.898 391.533 325.855 401.282 317.348 396.612C308.523 391.779 291.906 388.093 271.552 388.175C255.615 388.175 225.996 369.613 228.701 368.175C228.109 367.968 227.55 367.753 227.027 367.53C219.156 361.878 206.355 316.985 210.41 316.33C214.555 315.451 225.117 299.036 235.861 282.336C247.17 264.761 258.68 246.871 263.124 246.451C271.122 245.335 292.356 256.03 306.494 263.151C311.049 265.445 314.866 267.368 317.268 268.406C323.721 270.811 319.211 276.487 312.61 284.794Z" fill="url(#paint6_linear_15_11350)"/>
<path d="M378 314C374.661 300.729 384.373 266.194 368.471 260.295C358.612 256.035 347.879 254.561 337.304 256.117C328.638 256.937 308.587 273.116 300 275C295.945 275.655 299.235 273.582 314.5 273.5C352.266 273.418 386.348 347.588 378 314Z" fill="url(#paint7_linear_15_11350)"/>
<path d="M349.628 397.677C345.494 383.341 344.778 344.346 356.068 340.987C382.942 333.041 390.654 331.648 405.602 330.911C419.595 330.256 459.746 377.197 411.644 368.595C402.421 381.948 381.988 383.341 383.419 381.948C371.89 397.677 351.854 405.295 349.628 397.677Z" fill="url(#paint8_linear_15_11350)"/>
<path d="M362.827 373.756C359.487 373.265 358.613 375.804 356.227 373.756C353.842 371.79 359.567 368.759 366.643 359.666C370.857 356.635 376.263 352.539 388.348 354.177C400.434 355.816 402.819 357.372 409.895 362.861C416.971 368.35 403.455 377.115 400.672 377.607C392.642 379.081 381.193 379.982 371.016 377.607C367.279 376.787 366.166 374.248 362.827 373.756Z" fill="#E8E8E8"/>
<path d="M223.927 368.267C222.893 363.352 201.029 326.651 197.928 326.651C197.053 324.849 182.424 325.586 182.106 324.276C189.5 321.9 190.852 320.425 190.454 319.033C190.454 319.033 177.971 316.657 183.935 313.298C194.111 304.205 180.277 276.68 181.39 277.253C183.457 278.4 251.913 303.222 251.993 304.697C252.072 306.826 225.517 364.253 229.81 386.29C224.722 387.683 224.722 372.036 223.927 368.267Z" fill="#351E13"/>
<path d="M244.917 462.804C246.507 467.719 248.438 474.487 248.438 474.487C247.564 472.685 231.003 474.487 214.704 458.922C222.098 456.546 228.618 453.597 226.232 450.516C226.232 450.516 218.55 439.378 224.642 440.685C234.183 442.733 225.387 413.427 226.5 414C231.206 412.362 236.966 451.745 238.5 453.597C239.295 454.826 240.652 456.979 242.078 458.922C243.724 461.166 243.781 461.361 244.917 462.804Z" fill="#171107"/>
<path d="M408.702 460.756C404.963 467.498 402.739 470.586 402.739 470.586C403.728 468.948 421.821 468.948 428.182 458.298C430.476 454.457 436.928 441.914 430.567 443.553C430.567 443.553 421.424 446.829 422.616 434.951C423.809 423.072 430.567 404.64 427.387 400.544C419.436 413.651 413.87 450.106 413.87 450.106C412.678 452.973 412.678 452.973 411.883 454.612C410.052 458.384 410.292 457.889 408.702 460.756Z" fill="#171107"/>
<path d="M430.646 387.191C430.646 387.191 450.523 338.448 450.523 322.31C451.875 318.132 450.603 303.795 460.621 287.165C469.685 272.174 476.999 250.547 472.308 231.213C471.195 226.544 469.367 221.956 466.663 217.696C454.658 224.578 451.239 221.137 447.184 217.696C445.355 216.14 453.068 203.524 450.921 202.131C435.655 211.143 411.088 176.408 400.911 161.171C384.691 140.608 369.187 139.052 359.09 135.939C357.261 135.529 326.968 127.829 304.627 132.498C285.942 136.43 283.319 143.967 279.184 159.696C282.921 171.902 302.321 250.301 313.929 273.239C316.235 278.482 318.62 253.332 350.503 258.903C370.141 262.343 386.202 272.747 388.905 287.247C390.654 295.931 396.538 312.315 400.036 320.425C402.103 324.521 406.874 329.682 408.861 331.403C411.088 333.369 425.876 342.298 435.258 335.253C439.71 332.55 463.96 330.993 466.743 317.64C458.395 319.033 463.96 313.79 467.697 306.663C467.697 306.663 470.003 301.42 468.651 299.044C460.303 308.137 414.983 306.171 415.858 320.507C415.858 320.507 428.182 339.513 427.864 344.838C427.784 346.64 432.873 352.784 432.555 359.42C432.316 366.383 428.659 389.321 430.646 387.191Z" fill="url(#paint9_linear_15_11350)"/>
<path d="M244.917 462.804C244.917 462.804 305.581 516.59 312.021 520.112C318.461 523.635 352.252 524.536 359.726 520.112C365.609 516.672 402.739 470.587 402.739 470.587C402.739 470.587 395.027 510.892 388.03 524.982C375.071 544.725 363.145 557.177 363.145 557.177C355.75 560.045 303.434 556.276 292.303 547.511C277.117 535.632 244.917 462.804 244.917 462.804Z" fill="url(#paint10_linear_15_11350)"/>
<path d="M252.231 265.129C260.977 193.776 314.565 198.773 308.443 252.677C306.932 253.496 314.963 273.649 314.963 273.649C314.963 273.157 297.471 271.355 294.291 270.618C277.515 266.358 276.561 271.355 274.811 277.499C257.797 322.392 271.87 277.499 252.231 265.129Z" fill="#351E13"/>
<path d="M262.647 230.312C262.647 230.312 243.963 265.784 232.116 271.928C225.914 274.713 219.156 275.778 212.478 275.041C205.799 274.222 199.438 271.682 194.032 267.504C183.934 259.722 206.673 289.377 206.673 289.377C208.264 290.77 214.386 333.451 215.976 333.778C226.471 335.663 241.816 340.578 255.65 333.778C259.387 331.976 264.475 327.634 267.258 316.657C270.041 305.679 266.622 296.586 276.72 272.01C279.343 265.702 274.334 263.654 276.72 258.329C280.536 246.45 265.191 232.77 262.647 230.312Z" fill="#351E13"/>
<path d="M354.796 334.27C358.851 332.55 396.299 321.408 411.724 329.355C412.837 329.928 421.344 339.431 424.286 342.708C425.399 343.937 418.403 341.643 419.516 342.708C424.843 347.705 427.069 349.753 423.65 348.115C390.575 331.894 373.481 344.264 350.662 348.606C347.879 349.098 348.833 335.827 349.549 335.253C349.867 335.007 350.424 336.973 350.662 337.137C351.537 340.496 350.821 336.973 354.796 334.27Z" fill="url(#paint11_linear_15_11350)"/>
<path d="M319.574 331.894C319.097 332.877 317.507 337.874 317.11 337.629C316.473 337.219 315.837 333.451 315.36 332.795C314.486 331.403 274.971 322.064 255.73 330.747C246.109 335.089 238.318 345.575 239.272 346.968C239.431 347.213 242.293 344.346 243.326 344.018C244.042 343.773 242.452 345.739 243.645 345.329C244.122 345.165 244.281 345.329 245.473 344.838C246.427 344.51 245.95 344.756 246.825 344.346C263.601 337.629 284.273 339.595 284.273 339.595C292.462 340.66 320.051 349.425 323.232 349.999C325.617 350.49 325.458 338.53 323.232 335.663C322.437 334.679 321.005 339.267 320.369 338.366C320.21 338.12 321.403 334.27 319.574 331.894Z" fill="url(#paint12_linear_15_11350)"/>
<path d="M337.543 650.566C368.949 623.532 468.333 532.823 468.333 532.823C448.456 527.498 339.928 650.566 337.543 650.566C337.543 650.566 248.892 567.64 186.479 552.894L337.543 650.566Z" fill="url(#paint13_linear_15_11350)"/>
<path d="M405.125 548.798C405.125 548.798 413.871 531.52 413.871 525.064C416.653 513.186 404.152 487.141 401.945 488.586C399.957 511.114 400.354 534.052 405.125 548.798Z" fill="url(#paint14_linear_15_11350)"/>
<path d="M319 426.479C323.598 427.94 339.546 432.751 352.266 426.479C378.683 413.504 353.831 441 342.482 441C331.23 441 319 436.36 319 426.479Z" fill="url(#paint15_linear_15_11350)"/>
<path d="M312.18 479.906C316.235 480.889 329.274 491.539 350.423 482.282C378.489 466.717 348.595 494.734 338.815 494.734C329.036 494.734 302.798 475.319 312.18 479.906Z" fill="url(#paint16_linear_15_11350)" fill-opacity="0.7"/>
<path d="M305.978 212.027C298.346 178.849 282.683 155.993 282.524 150.177C283.398 132.482 313.452 127.566 325.537 131.99C328.32 132.973 334.283 140.51 341.836 150.177C343.268 152.061 327.207 145.261 328.797 147.309C330.705 149.767 348.674 156.812 352.411 163.53C364.258 178.112 377.933 193.185 389.461 197.855C391.052 200.64 365.291 193.431 365.768 195.479C366.166 197.117 393.119 208.259 392.721 209.324C391.211 213.01 384.452 213.01 369.744 207.03C302.242 179.586 313.691 245.205 305.978 212.027Z" fill="url(#paint17_linear_15_11350)"/>
<path d="M384.85 446.338C376.422 448.141 373.083 453.547 362.031 463.706C344.5 473.5 325 475 310.908 468.129C300.095 458.135 289.123 455.022 287.294 454.53C331.898 456.251 387.712 447.485 384.85 446.338Z" fill="url(#paint18_linear_15_11350)"/>
<path d="M254.5 548.5C254.087 547.549 246.677 524.108 247.136 514.815C247.136 507.5 254.206 498.03 254.5 499.5C255 502 260.5 529 254.5 548.5Z" fill="url(#paint19_linear_15_11350)"/>
<path d="M356.625 372.445C352.888 369.578 368.63 356.471 372.367 355.242C399.638 349.507 415.381 360.485 407.51 365.236C378.33 357.618 371.413 367.202 356.625 372.445Z" fill="#B7B7B7"/>
<path d="M390.416 367.12C392.699 367.12 394.55 366.277 394.55 365.236C394.55 364.196 392.699 363.352 390.416 363.352C388.132 363.352 386.281 364.196 386.281 365.236C386.281 366.277 388.132 367.12 390.416 367.12Z" fill="url(#paint20_linear_15_11350)"/>
<g filter="url(#filter1_f_15_11350)">
<path d="M384.85 377.689C391.744 377.689 397.333 372.333 397.333 365.728C397.333 359.122 391.744 353.768 384.85 353.768C377.956 353.768 372.368 359.122 372.368 365.728C372.368 372.333 377.956 377.689 384.85 377.689Z" fill="url(#paint21_linear_15_11350)"/>
</g>
<path d="M355.671 373.346C352.888 372.855 364.019 354.996 367.677 353.767C375.071 349.917 380.477 349.917 386.202 349.917C403.137 350.163 413.871 363.024 412.121 366.629C384.85 348.606 367.279 356.716 355.671 373.346Z" fill="#351E13"/>
<path d="M384.85 370.07C387.133 370.07 388.984 368.345 388.984 366.219C388.984 364.093 387.133 362.369 384.85 362.369C382.567 362.369 380.716 364.093 380.716 366.219C380.716 368.345 382.567 370.07 384.85 370.07Z" fill="url(#paint22_linear_15_11350)"/>
<path d="M388.587 366.22C388.587 368.022 386.918 369.66 384.85 369.66C382.704 369.66 381.114 368.104 381.114 366.22C381.114 364.335 382.783 362.779 384.85 362.779C386.997 362.779 388.587 364.417 388.587 366.22Z" stroke="black"/>
<path d="M391.767 367.12C393.831 367.12 395.504 366.277 395.504 365.236C395.504 364.196 393.831 363.352 391.767 363.352C389.703 363.352 388.031 364.196 388.031 365.236C388.031 366.277 389.703 367.12 391.767 367.12Z" fill="url(#paint23_linear_15_11350)" fill-opacity="0.81"/>
<path d="M307.41 377.197C310.908 376.705 311.862 379.163 314.406 377.197C316.871 375.231 310.908 372.281 303.434 363.434C298.982 360.485 293.257 356.471 280.536 358.027C267.815 359.584 265.271 361.14 257.876 366.547C250.403 371.954 264.714 380.474 267.656 381.047C276.084 382.522 288.169 383.423 298.902 381.047C302.719 380.146 303.911 377.688 307.41 377.197Z" fill="#E8E8E8"/>
<path d="M313.452 377.606C317.507 374.33 300.413 359.42 296.358 358.109C266.622 351.637 248.017 367.039 256.604 372.445C288.407 363.68 297.392 371.708 313.452 377.606Z" fill="#B7B7B7"/>
<g filter="url(#filter2_f_15_11350)">
<path d="M286.181 381.211C293.075 381.211 298.664 375.856 298.664 369.251C298.664 362.645 293.075 357.29 286.181 357.29C279.287 357.29 273.698 362.645 273.698 369.251C273.698 375.856 279.287 381.211 286.181 381.211Z" fill="url(#paint24_linear_15_11350)"/>
</g>
<path d="M314.565 377.115C317.507 376.623 305.66 358.682 301.685 357.536C293.734 353.685 288.089 353.603 281.888 353.685C269.712 353.796 260.539 359.685 256.445 364.613C254.471 366.989 253.678 369.142 254.299 370.315C283.319 352.211 302.162 360.321 314.565 377.115Z" fill="#351E13"/>
<path d="M254.458 370.643C250.88 372.281 259.467 380.392 262.17 381.129C267.656 383.177 271.631 383.75 275.925 384.324C288.566 386.044 296.676 382.931 295.484 381.62C274.891 384.652 262.885 377.279 254.458 370.643Z" fill="#897667"/>
<path d="M371.413 377.688C370.618 377.688 378.808 382.03 382.067 382.03C387.633 382.44 391.847 381.784 395.981 380.638C408.305 377.361 413.314 367.448 411.644 366.711C395.504 382.44 382.067 379.573 371.413 377.688Z" fill="#897667"/>
<path d="M286.181 373.592C288.465 373.592 290.316 371.869 290.316 369.742C290.316 367.615 288.465 365.892 286.181 365.892C283.898 365.892 282.047 367.615 282.047 369.742C282.047 371.869 283.898 373.592 286.181 373.592Z" fill="url(#paint25_linear_15_11350)"/>
<path d="M282.444 369.742C282.444 371.544 284.114 373.183 286.181 373.183C288.328 373.183 289.918 371.626 289.918 369.742C289.918 367.94 288.248 366.301 286.181 366.301C284.034 366.301 282.444 367.858 282.444 369.742Z" stroke="black"/>
<g filter="url(#filter3_f_15_11350)">
<path d="M289.521 366.874C289.521 367.939 291.19 368.759 293.258 368.759C295.325 368.759 296.994 367.939 296.994 366.874C296.994 365.809 295.325 364.99 293.258 364.99C291.111 364.99 289.521 365.809 289.521 366.874Z" fill="url(#paint26_linear_15_11350)" fill-opacity="0.92"/>
</g>
<g filter="url(#filter4_f_15_11350)">
<path d="M286.261 370.971C286.261 372.036 287.056 372.855 288.089 372.855C289.123 372.855 289.918 372.036 289.918 370.971C289.918 369.906 289.123 369.086 288.089 369.086C287.056 369.086 286.261 369.906 286.261 370.971Z" fill="url(#paint27_linear_15_11350)" fill-opacity="0.94"/>
</g>
<path d="M384.93 446.42C353.524 450.434 357.44 445.847 351 446.42C340.823 447.813 343.596 451.277 330 448C319.585 444.559 315.202 453.138 286.738 454.448C322.5 465.5 387.474 447.977 384.93 446.42Z" fill="url(#paint28_linear_15_11350)"/>
<path d="M384.373 368.103C384.373 369.168 385.168 369.988 386.202 369.988C387.235 369.988 388.03 369.168 388.03 368.103C388.03 367.038 387.235 366.219 386.202 366.219C385.168 366.219 384.373 367.038 384.373 368.103Z" fill="url(#paint29_linear_15_11350)" fill-opacity="0.81"/>
<path d="M384.373 314.691C394.073 280.858 384.373 258.903 370.936 246.451C331.421 220.236 322.834 229.739 315.678 239.733C305.024 254.479 301.367 263.572 308.284 274.55C315.678 276.434 315.519 275.615 343.904 276.434C381.67 276.352 384.373 341.397 384.373 314.691Z" fill="#2B180F"/>
<path d="M293.496 329.191C275.368 308.956 262.17 281.758 271.075 268.159C276.243 259.312 286.42 251.366 295.324 246.45C302.401 242.109 309 248.416 315.36 255.052C322.675 262.671 315.36 273.812 313.929 274.877C271.075 293.473 307.887 349.507 293.496 329.191Z" fill="#2B180F"/>
<circle cx="339" cy="657" r="6" fill="#071E0A"/>
<ellipse cx="265.332" cy="401.996" rx="33.5" ry="22.5" transform="rotate(20.9627 265.332 401.996)" fill="url(#paint30_radial_15_11350)" fill-opacity="0.18"/>
<ellipse cx="402.428" cy="404.891" rx="21" ry="12.509" transform="rotate(-32.8022 402.428 404.891)" fill="url(#paint31_radial_15_11350)" fill-opacity="0.18"/>
</g>
</g>
<rect x="9.5" y="45.5" width="637" height="637" rx="318.5" stroke="#3B82F6" stroke-width="3"/>
<rect x="263" y="691" width="129" height="35" rx="4" fill="#3B82F6"/>
<path d="M274.125 717.219C273.411 717.208 272.708 717.078 272.016 716.828C271.328 716.578 270.703 716.161 270.141 715.578C269.578 714.995 269.128 714.211 268.789 713.227C268.456 712.242 268.289 711.013 268.289 709.539C268.289 708.143 268.427 706.904 268.703 705.82C268.984 704.737 269.388 703.823 269.914 703.078C270.44 702.328 271.076 701.758 271.82 701.367C272.565 700.977 273.401 700.781 274.328 700.781C275.281 700.781 276.128 700.969 276.867 701.344C277.607 701.719 278.206 702.237 278.664 702.898C279.128 703.56 279.422 704.312 279.547 705.156H277.164C277.003 704.49 276.682 703.945 276.203 703.523C275.724 703.102 275.099 702.891 274.328 702.891C273.156 702.891 272.242 703.401 271.586 704.422C270.935 705.443 270.607 706.862 270.602 708.68H270.719C270.995 708.227 271.333 707.841 271.734 707.523C272.141 707.201 272.594 706.953 273.094 706.781C273.599 706.604 274.13 706.516 274.688 706.516C275.615 706.516 276.453 706.742 277.203 707.195C277.958 707.643 278.56 708.263 279.008 709.055C279.456 709.846 279.68 710.753 279.68 711.773C279.68 712.794 279.448 713.719 278.984 714.547C278.526 715.375 277.88 716.031 277.047 716.516C276.214 716.995 275.24 717.229 274.125 717.219ZM274.117 715.187C274.732 715.187 275.281 715.036 275.766 714.734C276.25 714.432 276.633 714.026 276.914 713.516C277.195 713.005 277.336 712.435 277.336 711.805C277.336 711.19 277.198 710.63 276.922 710.125C276.651 709.62 276.276 709.219 275.797 708.922C275.323 708.625 274.781 708.477 274.172 708.477C273.708 708.477 273.279 708.565 272.883 708.742C272.492 708.919 272.148 709.164 271.852 709.477C271.555 709.789 271.32 710.148 271.148 710.555C270.982 710.956 270.898 711.38 270.898 711.828C270.898 712.427 271.036 712.982 271.313 713.492C271.594 714.003 271.977 714.414 272.461 714.727C272.951 715.034 273.503 715.187 274.117 715.187ZM283.289 713.875V711.922L290.204 701H291.743V703.875H290.766L285.821 711.703V711.828H295.297V713.875H283.289ZM290.875 717V713.281L290.891 712.391V701H293.18V717H290.875ZM304.69 717.266C303.456 717.26 302.401 716.935 301.526 716.289C300.651 715.643 299.982 714.703 299.518 713.469C299.055 712.234 298.823 710.747 298.823 709.008C298.823 707.273 299.055 705.792 299.518 704.562C299.987 703.333 300.659 702.396 301.534 701.75C302.414 701.104 303.466 700.781 304.69 700.781C305.914 700.781 306.964 701.107 307.839 701.758C308.714 702.404 309.383 703.341 309.846 704.57C310.315 705.794 310.55 707.273 310.55 709.008C310.55 710.753 310.318 712.242 309.854 713.477C309.391 714.706 308.721 715.646 307.846 716.297C306.971 716.943 305.919 717.266 304.69 717.266ZM304.69 715.18C305.774 715.18 306.62 714.651 307.229 713.594C307.844 712.536 308.151 711.008 308.151 709.008C308.151 707.68 308.011 706.557 307.729 705.641C307.453 704.719 307.055 704.021 306.534 703.547C306.018 703.068 305.404 702.828 304.69 702.828C303.612 702.828 302.766 703.359 302.151 704.422C301.537 705.484 301.227 707.013 301.221 709.008C301.221 710.341 301.36 711.469 301.636 712.391C301.917 713.307 302.315 714.003 302.831 714.477C303.346 714.945 303.966 715.18 304.69 715.18ZM330.882 714.344L321.898 705.359L323.375 703.883L332.359 712.867L330.882 714.344ZM323.375 714.344L321.898 712.867L330.882 703.883L332.359 705.359L323.375 714.344ZM349.604 717.219C348.89 717.208 348.187 717.078 347.495 716.828C346.807 716.578 346.182 716.161 345.62 715.578C345.057 714.995 344.607 714.211 344.268 713.227C343.935 712.242 343.768 711.013 343.768 709.539C343.768 708.143 343.906 706.904 344.182 705.82C344.463 704.737 344.867 703.823 345.393 703.078C345.919 702.328 346.554 701.758 347.299 701.367C348.044 700.977 348.88 700.781 349.807 700.781C350.76 700.781 351.607 700.969 352.346 701.344C353.086 701.719 353.685 702.237 354.143 702.898C354.607 703.56 354.901 704.312 355.026 705.156H352.643C352.482 704.49 352.161 703.945 351.682 703.523C351.203 703.102 350.578 702.891 349.807 702.891C348.635 702.891 347.721 703.401 347.065 704.422C346.414 705.443 346.086 706.862 346.08 708.68H346.198C346.474 708.227 346.812 707.841 347.213 707.523C347.62 707.201 348.073 706.953 348.573 706.781C349.078 706.604 349.609 706.516 350.166 706.516C351.093 706.516 351.932 706.742 352.682 707.195C353.437 707.643 354.039 708.263 354.487 709.055C354.935 709.846 355.159 710.753 355.159 711.773C355.159 712.794 354.927 713.719 354.463 714.547C354.005 715.375 353.359 716.031 352.526 716.516C351.692 716.995 350.718 717.229 349.604 717.219ZM349.596 715.187C350.211 715.187 350.76 715.036 351.245 714.734C351.729 714.432 352.112 714.026 352.393 713.516C352.674 713.005 352.815 712.435 352.815 711.805C352.815 711.19 352.677 710.63 352.401 710.125C352.13 709.62 351.755 709.219 351.276 708.922C350.802 708.625 350.26 708.477 349.651 708.477C349.187 708.477 348.758 708.565 348.362 708.742C347.971 708.919 347.627 709.164 347.33 709.477C347.034 709.789 346.799 710.148 346.627 710.555C346.461 710.956 346.377 711.38 346.377 711.828C346.377 712.427 346.515 712.982 346.791 713.492C347.073 714.003 347.455 714.414 347.94 714.727C348.429 715.034 348.982 715.187 349.596 715.187ZM358.768 713.875V711.922L365.682 701H367.221V703.875H366.245L361.3 711.703V711.828H370.776V713.875H358.768ZM366.354 717V713.281L366.37 712.391V701H368.659V717H366.354ZM380.169 717.266C378.935 717.26 377.88 716.935 377.005 716.289C376.13 715.643 375.461 714.703 374.997 713.469C374.534 712.234 374.302 710.747 374.302 709.008C374.302 707.273 374.534 705.792 374.997 704.562C375.466 703.333 376.138 702.396 377.013 701.75C377.893 701.104 378.945 700.781 380.169 700.781C381.393 700.781 382.443 701.107 383.318 701.758C384.193 702.404 384.862 703.341 385.325 704.57C385.794 705.794 386.029 707.273 386.029 709.008C386.029 710.753 385.797 712.242 385.333 713.477C384.87 714.706 384.2 715.646 383.325 716.297C382.45 716.943 381.398 717.266 380.169 717.266ZM380.169 715.18C381.252 715.18 382.099 714.651 382.708 713.594C383.323 712.536 383.63 711.008 383.63 709.008C383.63 707.68 383.489 706.557 383.208 705.641C382.932 704.719 382.534 704.021 382.013 703.547C381.497 703.068 380.883 702.828 380.169 702.828C379.091 702.828 378.245 703.359 377.63 704.422C377.015 705.484 376.706 707.013 376.7 709.008C376.7 710.341 376.838 711.469 377.114 712.391C377.396 713.307 377.794 714.003 378.31 714.477C378.825 714.945 379.445 715.18 380.169 715.18Z" fill="white"/>
<rect x="8" y="44" width="639" height="639" stroke="#3B82F6" stroke-width="2"/>
<rect x="639" y="676" width="14" height="14" fill="#D9D9D9" stroke="#3B82F6" stroke-width="2"/>
<rect x="639" y="36" width="14" height="14" fill="#D9D9D9" stroke="#3B82F6" stroke-width="2"/>
<rect x="1" y="36" width="14" height="14" fill="#D9D9D9" stroke="#3B82F6" stroke-width="2"/>
<rect x="1" y="676" width="14" height="14" fill="#D9D9D9" stroke="#3B82F6" stroke-width="2"/>
<ellipse cx="338.5" cy="406" rx="28.5" ry="14" fill="url(#paint32_radial_15_11350)" fill-opacity="0.15"/>
<path d="M534.001 673.641L583.839 706.926C585.391 707.963 584.803 710.373 582.947 710.578L557.968 713.333C556.186 713.53 554.585 714.514 553.604 716.015L540.726 735.723C539.696 737.299 537.257 736.708 537.062 734.835L530.901 675.51C530.726 673.826 532.593 672.7 534.001 673.641Z" fill="black" stroke="white" stroke-width="4"/>
<line x1="648" y1="363" x2="783" y2="363" stroke="#DC2626" stroke-width="2"/>
<rect x="697" y="370" width="37" height="35" rx="4" fill="#DC2626"/>
<path d="M702.539 396V394.25L707.953 388.641C708.531 388.031 709.008 387.497 709.383 387.039C709.763 386.576 710.047 386.135 710.234 385.719C710.422 385.302 710.516 384.859 710.516 384.391C710.516 383.859 710.391 383.401 710.141 383.016C709.891 382.625 709.549 382.326 709.117 382.117C708.685 381.904 708.198 381.797 707.656 381.797C707.083 381.797 706.583 381.914 706.156 382.148C705.729 382.383 705.401 382.714 705.172 383.141C704.943 383.568 704.828 384.068 704.828 384.641H702.523C702.523 383.667 702.747 382.815 703.195 382.086C703.643 381.357 704.258 380.792 705.039 380.391C705.82 379.984 706.708 379.781 707.703 379.781C708.708 379.781 709.594 379.982 710.359 380.383C711.13 380.779 711.732 381.32 712.164 382.008C712.596 382.69 712.812 383.461 712.812 384.32C712.812 384.914 712.701 385.495 712.477 386.062C712.258 386.63 711.875 387.263 711.328 387.961C710.781 388.654 710.021 389.495 709.047 390.484L705.867 393.812V393.93H713.07V396H702.539ZM716.452 392.875V390.922L723.366 380H724.905V382.875H723.928L718.983 390.703V390.828H728.459V392.875H716.452ZM724.038 396V392.281L724.053 391.391V380H726.342V396H724.038Z" fill="white"/>
<defs>
<filter id="filter0_d_15_11350" x="70" y="130.461" width="582.6" height="720.355" filterUnits="userSpaceOnUse" color-interpolation-filters="sRGB">
<feFlood flood-opacity="0" result="BackgroundImageFix"/>
<feColorMatrix in="SourceAlpha" type="matrix" values="0 0 0 0 0 0 0 0 0 0 0 0 0 0 0 0 0 0 127 0" result="hardAlpha"/>
<feOffset dx="25" dy="37"/>
<feGaussianBlur stdDeviation="4.3"/>
<feComposite in2="hardAlpha" operator="out"/>
<feColorMatrix type="matrix" values="0 0 0 0 0.206478 0 0 0 0 0.161731 0 0 0 0 0.161731 0 0 0 0.25 0"/>
<feBlend mode="normal" in2="BackgroundImageFix" result="effect1_dropShadow_15_11350"/>
<feBlend mode="normal" in="SourceGraphic" in2="effect1_dropShadow_15_11350" result="shape"/>
</filter>
<filter id="filter1_f_15_11350" x="371.568" y="352.968" width="26.5653" height="25.5209" filterUnits="userSpaceOnUse" color-interpolation-filters="sRGB">
<feFlood flood-opacity="0" result="BackgroundImageFix"/>
<feBlend mode="normal" in="SourceGraphic" in2="BackgroundImageFix" result="shape"/>
<feGaussianBlur stdDeviation="0.4" result="effect1_foregroundBlur_15_11350"/>
</filter>
<filter id="filter2_f_15_11350" x="272.898" y="356.49" width="26.5653" height="25.5209" filterUnits="userSpaceOnUse" color-interpolation-filters="sRGB">
<feFlood flood-opacity="0" result="BackgroundImageFix"/>
<feBlend mode="normal" in="SourceGraphic" in2="BackgroundImageFix" result="shape"/>
<feGaussianBlur stdDeviation="0.4" result="effect1_foregroundBlur_15_11350"/>
</filter>
<filter id="filter3_f_15_11350" x="289.221" y="364.69" width="8.07363" height="4.36855" filterUnits="userSpaceOnUse" color-interpolation-filters="sRGB">
<feFlood flood-opacity="0" result="BackgroundImageFix"/>
<feBlend mode="normal" in="SourceGraphic" in2="BackgroundImageFix" result="shape"/>
<feGaussianBlur stdDeviation="0.15" result="effect1_foregroundBlur_15_11350"/>
</filter>
<filter id="filter4_f_15_11350" x="285.961" y="368.786" width="4.25747" height="4.36855" filterUnits="userSpaceOnUse" color-interpolation-filters="sRGB">
<feFlood flood-opacity="0" result="BackgroundImageFix"/>
<feBlend mode="normal" in="SourceGraphic" in2="BackgroundImageFix" result="shape"/>
<feGaussianBlur stdDeviation="0.15" result="effect1_foregroundBlur_15_11350"/>
</filter>
<linearGradient id="paint0_linear_15_11350" x1="328" y1="44" x2="328.344" y2="601.929" gradientUnits="userSpaceOnUse">
<stop stop-color="#B1B1B1"/>
<stop offset="1" stop-color="#2D2D2D"/>
</linearGradient>
<linearGradient id="paint1_linear_15_11350" x1="323.915" y1="182.077" x2="323.915" y2="868.657" gradientUnits="userSpaceOnUse">
<stop stop-color="#F7D1B2"/>
<stop offset="0.58" stop-color="#D7B294"/>
<stop offset="0.749782" stop-color="#37281C" stop-opacity="0.769902"/>
<stop offset="1" stop-color="#866F5D" stop-opacity="0"/>
</linearGradient>
<linearGradient id="paint2_linear_15_11350" x1="302.784" y1="233.995" x2="265.067" y2="79.0179" gradientUnits="userSpaceOnUse">
<stop stop-color="#84503A"/>
<stop offset="0.564482" stop-color="#BB9068"/>
</linearGradient>
<radialGradient id="paint3_radial_15_11350" cx="0" cy="0" r="1" gradientUnits="userSpaceOnUse" gradientTransform="translate(328.4 464.32) rotate(86.029) scale(229.62 562.141)">
<stop stop-color="#739B64"/>
<stop offset="1" stop-color="#09160B"/>
</radialGradient>
<linearGradient id="paint4_linear_15_11350" x1="430.523" y1="400.308" x2="430.523" y2="322.631" gradientUnits="userSpaceOnUse">
<stop stop-color="#B59471"/>
<stop offset="1" stop-color="#5B4F42"/>
</linearGradient>
<linearGradient id="paint5_linear_15_11350" x1="213.127" y1="412.269" x2="213.127" y2="335.064" gradientUnits="userSpaceOnUse">
<stop stop-color="#B59471"/>
<stop offset="1" stop-color="#5B4F42"/>
</linearGradient>
<linearGradient id="paint6_linear_15_11350" x1="270" y1="381" x2="270" y2="291" gradientUnits="userSpaceOnUse">
<stop stop-color="#C4A280" stop-opacity="0.61"/>
<stop offset="1" stop-color="#4F4131"/>
</linearGradient>
<linearGradient id="paint7_linear_15_11350" x1="404.591" y1="297.503" x2="302.897" y2="297.503" gradientUnits="userSpaceOnUse">
<stop stop-color="#B59471"/>
<stop offset="1" stop-color="#4F4131"/>
</linearGradient>
<linearGradient id="paint8_linear_15_11350" x1="390.741" y1="400.656" x2="390.741" y2="330.904" gradientUnits="userSpaceOnUse">
<stop stop-color="#B59471" stop-opacity="0.4"/>
<stop offset="1" stop-color="#4F4131"/>
</linearGradient>
<linearGradient id="paint9_linear_15_11350" x1="406.5" y1="259" x2="376.478" y2="131" gradientUnits="userSpaceOnUse">
<stop stop-color="#25140B"/>
<stop offset="1" stop-color="#593929"/>
</linearGradient>
<linearGradient id="paint10_linear_15_11350" x1="323.512" y1="462.563" x2="323.512" y2="558.081" gradientUnits="userSpaceOnUse">
<stop stop-color="#312215"/>
<stop offset="1" stop-color="#BE916D"/>
</linearGradient>
<linearGradient id="paint11_linear_15_11350" x1="387.286" y1="326.218" x2="387.144" y2="341.889" gradientUnits="userSpaceOnUse">
<stop stop-color="#593829"/>
<stop offset="1" stop-color="#351E13"/>
</linearGradient>
<linearGradient id="paint12_linear_15_11350" x1="281.853" y1="327.041" x2="282.062" y2="339.967" gradientUnits="userSpaceOnUse">
<stop stop-color="#503020"/>
<stop offset="1" stop-color="#351E13"/>
</linearGradient>
<linearGradient id="paint13_linear_15_11350" x1="331.955" y1="571.212" x2="341.252" y2="632.301" gradientUnits="userSpaceOnUse">
<stop stop-color="#0B1905"/>
<stop offset="1" stop-color="#020903"/>
</linearGradient>
<linearGradient id="paint14_linear_15_11350" x1="414.678" y1="488.016" x2="414.678" y2="543.76" gradientUnits="userSpaceOnUse">
<stop stop-color="#00212F"/>
<stop offset="1"/>
</linearGradient>
<linearGradient id="paint15_linear_15_11350" x1="341.515" y1="416.36" x2="341.515" y2="441.021" gradientUnits="userSpaceOnUse">
<stop stop-color="#724E28"/>
<stop offset="1" stop-color="#C1A78C"/>
</linearGradient>
<linearGradient id="paint16_linear_15_11350" x1="336.175" y1="481.601" x2="336.175" y2="494.718" gradientUnits="userSpaceOnUse">
<stop stop-color="#A68F77"/>
<stop offset="1" stop-color="#C1A78C"/>
</linearGradient>
<linearGradient id="paint17_linear_15_11350" x1="337.684" y1="135.338" x2="337.684" y2="221.652" gradientUnits="userSpaceOnUse">
<stop stop-color="#A67756"/>
<stop offset="1" stop-color="#84513B"/>
</linearGradient>
<linearGradient id="paint18_linear_15_11350" x1="336" y1="461" x2="336" y2="476" gradientUnits="userSpaceOnUse">
<stop stop-color="#E2E2E2"/>
<stop offset="0.822085" stop-color="#ECECEC"/>
<stop offset="1" stop-color="#C8C8C8"/>
</linearGradient>
<linearGradient id="paint19_linear_15_11350" x1="250.372" y1="498.427" x2="250.372" y2="543.534" gradientUnits="userSpaceOnUse">
<stop stop-color="#00212F"/>
<stop offset="1"/>
</linearGradient>
<linearGradient id="paint20_linear_15_11350" x1="390.353" y1="363.359" x2="390.476" y2="368.137" gradientUnits="userSpaceOnUse">
<stop stop-color="#22A7E0"/>
<stop offset="1" stop-color="#E0E0E0"/>
</linearGradient>
<linearGradient id="paint21_linear_15_11350" x1="385.376" y1="358.793" x2="384.48" y2="377.768" gradientUnits="userSpaceOnUse">
<stop offset="0.195" stop-color="#372014"/>
<stop offset="0.5" stop-color="#8D583F"/>
<stop offset="0.755" stop-color="#B18037"/>
<stop offset="0.915" stop-color="#A97930"/>
<stop offset="1" stop-color="#563B13"/>
</linearGradient>
<linearGradient id="paint22_linear_15_11350" x1="384.66" y1="362.409" x2="385.151" y2="371.947" gradientUnits="userSpaceOnUse">
<stop/>
<stop offset="1" stop-color="#5E3421"/>
</linearGradient>
<linearGradient id="paint23_linear_15_11350" x1="391.736" y1="363.359" x2="391.875" y2="368.136" gradientUnits="userSpaceOnUse">
<stop stop-color="#22A7E0"/>
<stop offset="1" stop-color="#E0E0E0"/>
</linearGradient>
<linearGradient id="paint24_linear_15_11350" x1="286.707" y1="362.316" x2="285.811" y2="381.29" gradientUnits="userSpaceOnUse">
<stop offset="0.195" stop-color="#372014"/>
<stop offset="0.5" stop-color="#8D583F"/>
<stop offset="0.755" stop-color="#B18037"/>
<stop offset="0.915" stop-color="#A97930"/>
<stop offset="1" stop-color="#563B13"/>
</linearGradient>
<linearGradient id="paint25_linear_15_11350" x1="286.184" y1="369.946" x2="285.693" y2="379.483" gradientUnits="userSpaceOnUse">
<stop/>
<stop offset="1" stop-color="#5E3421"/>
</linearGradient>
<linearGradient id="paint26_linear_15_11350" x1="293.1" y1="365.7" x2="293.326" y2="368.375" gradientUnits="userSpaceOnUse">
<stop stop-color="#22A7E0"/>
<stop offset="1" stop-color="#E0E0E0"/>
</linearGradient>
<linearGradient id="paint27_linear_15_11350" x1="287.92" y1="369.844" x2="288.362" y2="372.464" gradientUnits="userSpaceOnUse">
<stop stop-color="#22A7E0"/>
<stop offset="1" stop-color="white"/>
</linearGradient>
<linearGradient id="paint28_linear_15_11350" x1="335.863" y1="448.087" x2="335.863" y2="458.377" gradientUnits="userSpaceOnUse">
<stop stop-color="#E47D6E" stop-opacity="0.7"/>
<stop offset="1" stop-color="#A6473A"/>
</linearGradient>
<linearGradient id="paint29_linear_15_11350" x1="386.051" y1="366.981" x2="386.494" y2="369.601" gradientUnits="userSpaceOnUse">
<stop stop-color="#22A7E0"/>
<stop offset="1" stop-color="#E0E0E0"/>
</linearGradient>
<radialGradient id="paint30_radial_15_11350" cx="0" cy="0" r="1" gradientUnits="userSpaceOnUse" gradientTransform="translate(265.332 401.996) rotate(90) scale(22.5 33.5)">
<stop stop-color="#FF0000" stop-opacity="0.42"/>
<stop offset="1" stop-color="#990000" stop-opacity="0"/>
</radialGradient>
<radialGradient id="paint31_radial_15_11350" cx="0" cy="0" r="1" gradientUnits="userSpaceOnUse" gradientTransform="translate(402.428 404.891) rotate(90) scale(12.509 21)">
<stop stop-color="#FF0000" stop-opacity="0.42"/>
<stop offset="1" stop-color="#990000" stop-opacity="0"/>
</radialGradient>
<radialGradient id="paint32_radial_15_11350" cx="0" cy="0" r="1" gradientUnits="userSpaceOnUse" gradientTransform="translate(338.5 406) rotate(90) scale(14 28.5)">
<stop stop-color="#FF0000" stop-opacity="0.42"/>
<stop offset="1" stop-color="#990000" stop-opacity="0"/>
</radialGradient>
<clipPath id="clip0_15_11350">
<rect x="8" y="44" width="640" height="640" rx="320" fill="white"/>
</clipPath>
</defs>
</svg>
