<svg width="16" height="16" viewBox="0 0 16 16" fill="none" xmlns="http://www.w3.org/2000/svg">
<path d="M7.48501 13.6212C7.45797 13.7294 7.39555 13.8254 7.30768 13.894C7.2198 13.9626 7.11151 13.9999 7.00001 13.9999C6.95788 14.0001 6.91589 13.9951 6.87501 13.9849L4.87501 13.4849C4.81933 13.471 4.76647 13.4475 4.71876 13.4156L3.21876 12.4156C3.10845 12.342 3.03189 12.2276 3.00592 12.0975C2.97996 11.9675 3.00672 11.8324 3.08032 11.7221C3.15392 11.6118 3.26832 11.5353 3.39837 11.5093C3.52841 11.4833 3.66345 11.5101 3.77376 11.5837L5.20126 12.5356L7.11751 13.0149C7.18153 13.0305 7.24186 13.0585 7.29502 13.0974C7.34818 13.1363 7.39313 13.1853 7.42728 13.2417C7.46143 13.298 7.48411 13.3605 7.49402 13.4257C7.50392 13.4908 7.50086 13.5573 7.48501 13.6212ZM15.7781 7.59245C15.7371 7.71706 15.6718 7.83231 15.586 7.93154C15.5002 8.03077 15.3955 8.11201 15.2781 8.17057L13.7981 8.91057L10.3556 12.3537C10.2945 12.4147 10.2187 12.4589 10.1354 12.4819C10.0522 12.5049 9.9644 12.506 9.88063 12.4849L5.88063 11.4849C5.8198 11.4697 5.76236 11.4432 5.71126 11.4068L2.24126 8.92932L0.723759 8.17057C0.486594 8.05201 0.306222 7.84412 0.222304 7.5926C0.138387 7.34108 0.157794 7.06653 0.276259 6.82932L1.82938 3.7237C1.94794 3.48653 2.15584 3.30616 2.40735 3.22224C2.65887 3.13833 2.93342 3.15773 3.17063 3.2762L4.54938 3.9637L7.86188 3.01745C7.95175 2.99174 8.04702 2.99174 8.13688 3.01745L11.4494 3.9637L12.8281 3.2762C13.0653 3.15773 13.3399 3.13833 13.5914 3.22224C13.8429 3.30616 14.0508 3.48653 14.1694 3.7237L15.7225 6.82932C15.7817 6.94654 15.8172 7.07433 15.8267 7.20532C15.8363 7.3363 15.8197 7.46788 15.7781 7.59245ZM12.8919 8.4012L11.1913 4.99995H9.20251L6.50001 7.62495C7.29126 8.13057 8.53188 8.26995 9.64501 7.14807C9.73194 7.06045 9.84822 7.00807 9.97145 7.00103C10.0947 6.994 10.2162 7.03279 10.3125 7.10995L12.4631 8.83307L12.8919 8.4012ZM1.17063 7.2762L2.27626 7.82932L3.82938 4.7237L2.72376 4.17057L1.17063 7.2762ZM11.75 9.5412L10.0181 8.15432C8.79688 9.15432 7.24626 9.2862 5.96126 8.46682C5.83486 8.38642 5.72814 8.27864 5.64898 8.15145C5.56982 8.02426 5.52025 7.88092 5.50393 7.732C5.48761 7.58308 5.50496 7.4324 5.55469 7.29109C5.60442 7.14978 5.68527 7.02144 5.79126 6.91557C5.79276 6.91375 5.79444 6.91208 5.79626 6.91057L8.60001 4.1912L8.00001 4.01995L4.84876 4.92057L3.13813 8.3412L6.21313 10.5381L9.84688 11.4462L11.75 9.5412ZM14.8275 7.2762L13.2763 4.17057L12.1706 4.7237L13.7238 7.82932L14.8275 7.2762Z" fill="#EEEEF0"/>
</svg>
