<svg width="114" height="24" viewBox="0 0 114 24" fill="none" xmlns="http://www.w3.org/2000/svg">
<path d="M10.0133 11.9924L4.15128 17.6168C3.7552 17.9337 3.7552 18.5674 4.07206 18.9635C4.2305 19.1219 4.46815 19.2011 4.7058 19.2011C4.94345 19.2011 5.18109 19.1219 5.33953 18.9635L11.2808 13.2599L17.5389 19.2803C17.9349 19.6764 18.4895 19.6764 18.8855 19.2803C19.2024 18.8843 19.2024 18.3298 18.8855 17.9337L12.7067 11.9132L18.6479 6.36807C18.9648 5.97199 19.044 5.41747 18.6479 5.02139C18.331 4.62531 17.6973 4.62531 17.3012 4.94217L11.4392 10.6458L5.18109 4.62531C4.78501 4.22923 4.2305 4.22923 3.83442 4.62531C3.43833 5.02139 3.43833 5.57591 3.83442 5.97199L10.0133 11.9924Z" fill="#fff"/>
<path d="M10.0133 11.9924L4.15128 17.6168C3.7552 17.9337 3.7552 18.5674 4.07206 18.9635C4.2305 19.1219 4.46815 19.2011 4.7058 19.2011C4.94345 19.2011 5.18109 19.1219 5.33953 18.9635L11.2808 13.2599L17.5389 19.2803C17.9349 19.6764 18.4895 19.6764 18.8855 19.2803C19.2024 18.8843 19.2024 18.3298 18.8855 17.9337L12.7067 11.9132L18.6479 6.36807C18.9648 5.97199 19.044 5.41747 18.6479 5.02139C18.331 4.62531 17.6973 4.62531 17.3012 4.94217L11.4392 10.6458L5.18109 4.62531C4.78501 4.22923 4.2305 4.22923 3.83442 4.62531C3.43833 5.02139 3.43833 5.57591 3.83442 5.97199L10.0133 11.9924Z" stroke="#fff" stroke-width="0.194"/>
<path d="M22.0954 11.0228H18.3722C17.8177 11.0228 17.4216 11.4189 17.4216 11.9734C17.4216 12.5279 17.8177 12.924 18.3722 12.924H22.0954C22.6499 12.924 23.046 12.5279 23.046 11.9734C23.046 11.4189 22.6499 11.0228 22.0954 11.0228Z" fill="#fff"/>
<path d="M22.0954 11.0228H18.3722C17.8177 11.0228 17.4216 11.4189 17.4216 11.9734C17.4216 12.5279 17.8177 12.924 18.3722 12.924H22.0954C22.6499 12.924 23.046 12.5279 23.046 11.9734C23.046 11.4189 22.6499 11.0228 22.0954 11.0228Z" stroke="#fff" stroke-width="0.194"/>
<path d="M1.79703 12.9248H5.5202C6.07472 12.9248 6.4708 12.5287 6.4708 11.9742C6.4708 11.4989 6.07472 11.0236 5.5202 11.0236H1.79703C1.24252 11.0236 0.846436 11.4989 0.846436 11.9742C0.846436 12.5287 1.24252 12.9248 1.79703 12.9248Z" fill="#fff"/>
<path d="M1.79703 12.9248H5.5202C6.07472 12.9248 6.4708 12.5287 6.4708 11.9742C6.4708 11.4989 6.07472 11.0236 5.5202 11.0236H1.79703C1.24252 11.0236 0.846436 11.4989 0.846436 11.9742C0.846436 12.5287 1.24252 12.9248 1.79703 12.9248Z" stroke="#fff" stroke-width="0.194"/>
<path d="M12.9571 21.7408V18.1761C12.9571 17.6215 12.561 17.2255 12.0065 17.2255C11.5312 17.2255 11.0559 17.6215 11.0559 18.1761V21.7408C11.0559 22.2161 11.452 22.6914 12.0065 22.6914C12.561 22.6914 12.9571 22.2953 12.9571 21.7408Z" fill="#fff"/>
<path d="M12.9571 21.7408V18.1761C12.9571 17.6215 12.561 17.2255 12.0065 17.2255C11.5312 17.2255 11.0559 17.6215 11.0559 18.1761V21.7408C11.0559 22.2161 11.452 22.6914 12.0065 22.6914C12.561 22.6914 12.9571 22.2953 12.9571 21.7408Z" stroke="#fff" stroke-width="0.194"/>
<path d="M11.9518 6.77447C12.5063 6.77447 12.9024 6.37838 12.9024 5.82387V2.25913C12.9024 1.70461 12.5063 1.30853 11.9518 1.30853C11.4765 1.30853 11.0012 1.70461 11.0012 2.25913V5.82387C11.0012 6.37838 11.3973 6.77447 11.9518 6.77447Z" fill="#fff"/>
<path d="M11.9518 6.77447C12.5063 6.77447 12.9024 6.37838 12.9024 5.82387V2.25913C12.9024 1.70461 12.5063 1.30853 11.9518 1.30853C11.4765 1.30853 11.0012 1.70461 11.0012 2.25913V5.82387C11.0012 6.37838 11.3973 6.77447 11.9518 6.77447Z" stroke="#fff" stroke-width="0.194"/>
<path d="M40.256 16.3832V11.6015H35.855V10.6975H40.256V5.91579H41.2314V10.6975H45.6325V11.6015H41.2314V16.3832H40.256Z" fill="#fff"/>
<g clip-path="url(#clip0_12_286)">
<path d="M108.979 10.0648C110.454 10.0648 111.387 11.125 111.387 12.5404H106.473C106.577 11.053 107.593 10.0648 108.979 10.0648ZM109.029 18.2121C111.298 18.2121 112.571 16.9049 113.01 15.1704H111.333C111.165 15.7726 110.588 16.7968 109.063 16.7968C107.351 16.7968 106.503 15.4174 106.468 13.8991H113.109C113.123 13.755 113.123 13.4926 113.123 13.2455C113.123 10.4508 111.648 8.64945 109.024 8.64945C106.399 8.64945 104.756 10.5949 104.756 13.4205C104.756 16.2461 106.281 18.2121 109.024 18.2121M94.7063 17.9496H96.586V6.98705H100.498V5.3092H90.789V6.98705H94.7014V17.9445L94.7063 17.9496ZM83.3886 10.0648C84.8637 10.0648 85.7962 11.125 85.7962 12.5404H80.8823C80.9859 11.053 82.0022 10.0648 83.3886 10.0648ZM83.4379 18.2121C85.7074 18.2121 86.9803 16.9049 87.4193 15.1704H85.7419C85.5742 15.7726 84.9969 16.7968 83.4725 16.7968C81.7605 16.7968 80.9168 15.4174 80.8823 13.8991H87.523C87.5378 13.755 87.5378 13.4926 87.5378 13.2455C87.5378 10.4508 86.0626 8.64945 83.4379 8.64945C80.8132 8.64945 79.1703 10.5949 79.1703 13.4205C79.1703 16.2461 80.6948 18.2121 83.4379 18.2121ZM75.7612 12.1698V17.9496H77.4386V11.6912C77.4386 9.62219 76.151 8.67004 74.5574 8.67004C73.0675 8.67004 72.1696 9.37515 71.7107 10.0648H71.6762V5.3092H70.0136V17.9445H71.6762V12.4117C71.6762 11.053 72.5889 10.1472 74.0147 10.1472C75.2531 10.1472 75.7612 10.9603 75.7612 12.1647M62.9585 17.9445H64.8382V6.98705H68.7506V5.3092H59.0461V6.98705H62.9585V17.9445Z" fill="#fff"/>
<path d="M101.411 13.3124H99.9211V17.9497H101.411V13.3124Z" fill="#fff"/>
<path d="M102.901 8.67517H101.411V13.3124H102.901V8.67517Z" fill="#fff"/>
</g>
<defs>
<clipPath id="clip0_12_286">
<rect width="54.2697" height="13.3816" fill="white" transform="translate(59.0461 5.3092)"/>
</clipPath>
</defs>
</svg>
