<svg width="24" height="24" viewBox="0 0 24 24" fill="none" xmlns="http://www.w3.org/2000/svg">
<path d="M12.9678 4.45656C13.4911 4.8192 11.2228 3.59692 10.4036 4.14256C8.64583 5.31489 9.44946 8.19032 11.1364 8.95679C12.9759 9.79282 15.8142 8.30243 15.1132 6.02665C14.9208 5.39929 12.3249 4.01086 12.9678 4.45656Z" stroke="#2F2F2F" stroke-width="1.35061" stroke-miterlimit="10" stroke-linecap="round" stroke-linejoin="round"/>
<path d="M8.04911 18.7427C6.18661 18.2396 7.29209 15.2378 7.6831 13.7711C8.54951 10.5229 10.3634 9.40116 13.5441 10.1082C16.1481 10.6869 16.5573 14.6888 16.8929 16.7019C17.0253 17.494 16.9976 19.1087 16.9976 19.1087C16.9976 19.1087 14.765 18.8338 13.6488 18.8993C11.377 19.033 9.54355 19.1458 8.04911 18.7427Z" stroke="#2F2F2F" stroke-width="1.35061" stroke-miterlimit="10" stroke-linecap="round" stroke-linejoin="round"/>
</svg>
