<svg id="Layer_1" data-name="Layer 1" xmlns="http://www.w3.org/2000/svg" viewBox="0 0 196.24836 195.94336"><path d="M193.81677,106.79364c-4.07015-11.29813-14.53262-18.9222-26.2959-20.48779v-.81934c15.16186-3.40164,24.983-18.49317,24.73895-33.60027q-.00063-10.65336-4.15209-17.41438c-9.28054-15.74057-29.47866-18.20971-46.13867-17.54773l-.06126.07174L0,16.96692V33.65283H47.72827V162.949H68V33.65283h74.20941l.00086.05738c15.75812-.69,32.0265,1.901,31.71191,21.64007.3622,12.97834-9.91426,21.36705-21.37109,25.00488-2.42159.35527-6.54661.71155-9.65784.87525l.23193,16.13891c17.42363-.27658,34.93006,2.96315,34.77558,24.58155.11644,19.21207-17.21126,26.3824-34.06116,25.13232l.24225,16.85608c26.24583.9907,52.54462-13.31129,52.1568-42.59973A39.63462,39.63462,0,0,0,193.81677,106.79364Z" transform="translate(0 -16.82883)"/><path d="M94.85,57.609V173.71667c-.171,2.05152.00933,19.18927-14.00953,19.37677-8.17852.10938-10.97967-7.53735-12.11547-13.9765H48.11267c1.7796,16.64942,7.87274,22.96051,13.32428,27.3089,10.17438,8.11536,31.38428,9.8645,43.75867-3.24859,9.89306-10.48377,9.81244-21.56153,9.87469-30.95954l.00769-.00274.043-114.606Z" transform="translate(0 -16.82883)"/></svg>