<svg width="297" height="195" viewBox="0 0 297 195" fill="none" xmlns="http://www.w3.org/2000/svg">
<path fill-rule="evenodd" clip-rule="evenodd" d="M183.287 0C173.367 0 162.846 1.2024 151.724 3.60719C146.464 3.60719 143.834 5.41079 143.834 9.01798C143.834 11.5731 144.51 13.0761 145.863 13.527C147.215 13.8276 148.718 13.9779 150.372 13.9779C150.217 16.4508 150.074 18.9107 149.942 21.3577C148.139 21.5507 146.241 22.1789 144.667 22.6995C143.242 23.1712 142.083 23.5546 141.504 23.446C130.683 25.5502 119.786 26.7526 108.814 27.0532L94.8361 27.5041C80.4074 27.5041 62.8974 26.6023 42.3064 24.7987C31.1842 23.7466 20.1372 22.9951 9.16531 22.5442C7.36171 22.5442 5.78357 23.5212 4.43087 25.4751C3.07817 27.429 2.40182 29.2326 2.40182 30.8859C2.40182 32.5392 2.70242 34.3428 3.30362 36.2967C4.05512 38.2506 5.03207 39.2275 6.23447 39.2275L54.2552 41.9329L47.2663 153.305L68.4585 151.727C68.1579 147.669 68.0076 140.755 68.0076 130.985C68.0076 121.066 69.5858 99.5728 72.7421 66.5069C73.6439 57.1883 74.2451 49.5982 74.5457 43.7365C81.4594 42.6844 87.5466 42.1583 92.8071 42.1583L112.872 42.6092C122.732 42.6092 138.267 41.4068 149.166 39.4636C148.918 47.3427 148.793 55.0798 148.793 62.675C148.793 78.1558 149.395 97.2439 150.597 119.939C151.048 130.16 151.424 140.079 151.724 149.698C160.141 153.155 170.211 154.884 181.935 154.884C197.265 154.884 213.873 152.028 231.759 146.317C251.148 140.154 267.079 132.414 279.554 123.095C290.977 114.378 296.688 105.961 296.688 97.8451C296.688 91.9834 293.231 86.8732 286.318 82.5145C273.843 74.248 250.095 69.1379 215.076 67.184C229.354 61.9235 240.326 56.7381 247.991 51.6279C259.564 43.9627 265.351 36.8234 265.351 30.2102C265.351 27.9557 264.825 26.0018 263.773 24.3485C259.865 16.3827 249.645 10.0701 233.112 5.41079C225.296 3.30659 217.48 1.87875 209.665 1.12725C202 0.375749 193.207 0 183.287 0ZM231.533 129.859C216.053 134.218 196.213 137.073 172.015 138.426L166.604 85.8963C187.947 81.5376 206.659 79.3582 222.741 79.3582C238.973 79.3582 251.974 81.3121 261.744 85.2199C270.762 88.9774 275.271 94.0125 275.271 100.325C275.271 105.135 271.814 110.17 264.9 115.43C258.136 120.54 247.014 125.35 231.533 129.859ZM187.345 14.6542H192.982C198.994 14.6542 205.006 14.8797 211.018 15.3306C214.925 15.6312 218.908 16.1572 222.966 16.9087C227.175 17.5099 230.932 18.4117 234.239 19.6141C237.696 20.8165 240.476 22.3947 242.58 24.3485C244.835 26.1521 245.962 28.4818 245.962 31.3375C245.962 34.1932 244.459 36.9737 241.453 39.6791C235.592 44.9396 226.348 49.7492 213.723 54.1079C194.334 60.5708 177.876 63.8022 164.349 63.8022L166.604 18.4869C168.107 15.9318 175.021 14.6542 187.345 14.6542ZM99.0103 124.781L105.97 82.7382C107.18 76.0839 108.391 70.2698 109.601 65.2959C110.986 60.201 112.566 57.815 114.34 58.1377L129.201 60.8408C128.771 63.2068 128.159 67.8312 127.366 74.7141C126.572 81.597 125.617 88.5269 124.501 95.5038C123.411 102.333 122.423 108.187 121.535 113.067C120.648 117.947 119.417 124.292 117.844 132.103C116.297 139.765 114.011 148.133 110.986 157.207C103.981 178.084 95.6584 190.243 86.0194 193.684C78.6926 196.17 67.9583 195.134 53.8164 190.576C39.5535 185.843 27.4685 179.215 17.5614 170.691C5.92029 160.783 0.0664823 150.552 0 139.999C0.618624 136.598 2.26561 133.842 4.94095 131.732C9.79423 127.726 13.8475 126.019 17.1007 126.611C15.7155 135.066 16.7434 142.433 20.1844 148.712C28.2762 163.016 43.7823 172.252 66.7027 176.421C70.5474 177.121 74.3585 177.585 78.136 177.813C86.0811 175.287 93.0392 157.609 99.0103 124.781Z" fill="black"/>
</svg>
