<svg width="16" height="16" viewBox="0 0 16 16" fill="none" xmlns="http://www.w3.org/2000/svg">
<path d="M13.8168 9.02564C13.4456 7.58172 12.5536 6.32602 11.3125 5.50002H15C15.1326 5.50002 15.2598 5.44734 15.3535 5.35357C15.4473 5.2598 15.5 5.13262 15.5 5.00002C15.5 4.86741 15.4473 4.74023 15.3535 4.64646C15.2598 4.55269 15.1326 4.50002 15 4.50002H9.93747C9.82732 4.06981 9.57712 3.6885 9.22632 3.4162C8.87551 3.14389 8.44406 2.99609 7.99997 2.99609C7.55589 2.99609 7.12443 3.14389 6.77363 3.4162C6.42282 3.6885 6.17262 4.06981 6.06247 4.50002H0.999971C0.867362 4.50002 0.740185 4.55269 0.646417 4.64646C0.552649 4.74023 0.499971 4.86741 0.499971 5.00002C0.499971 5.13262 0.552649 5.2598 0.646417 5.35357C0.740185 5.44734 0.867362 5.50002 0.999971 5.50002H4.68747C3.44632 6.32602 2.55436 7.58172 2.1831 9.02564C1.70302 9.10224 1.26727 9.35108 0.957346 9.72564C0.647419 10.1002 0.484529 10.5748 0.499133 11.0607C0.513738 11.5467 0.704837 12.0106 1.0367 12.3659C1.36856 12.7212 1.81846 12.9434 2.30227 12.991C2.78609 13.0387 3.27069 12.9084 3.66546 12.6247C4.06023 12.341 4.33814 11.9232 4.44723 11.4494C4.55632 10.9757 4.48911 10.4784 4.25818 10.0506C4.02724 9.62281 3.64839 9.29377 3.19247 9.12502C3.40715 8.38484 3.78879 7.70379 4.30802 7.13428C4.82725 6.56477 5.47023 6.12199 6.18747 5.84002C6.34794 6.18603 6.60402 6.47895 6.92549 6.68422C7.24696 6.8895 7.62043 6.99856 8.00185 6.99856C8.38327 6.99856 8.75673 6.8895 9.0782 6.68422C9.39968 6.47895 9.65575 6.18603 9.81622 5.84002C10.5328 6.12246 11.175 6.56546 11.6936 7.13494C12.2121 7.70442 12.5932 8.38522 12.8075 9.12502C12.3513 9.2932 11.9721 9.62177 11.7406 10.0493C11.5091 10.4768 11.4413 10.974 11.5498 11.4479C11.6583 11.9218 11.9357 12.3399 12.3301 12.6241C12.7245 12.9084 13.209 13.0392 13.6929 12.9921C14.1767 12.9451 14.6269 12.7234 14.9592 12.3686C15.2915 12.0137 15.4832 11.55 15.4984 11.064C15.5136 10.5781 15.3512 10.1033 15.0418 9.72836C14.7323 9.35343 14.2968 9.10407 13.8168 9.02689V9.02564ZM3.49997 11C3.49997 11.1978 3.44132 11.3911 3.33144 11.5556C3.22156 11.72 3.06538 11.8482 2.88265 11.9239C2.69993 11.9996 2.49886 12.0194 2.30488 11.9808C2.1109 11.9422 1.93272 11.847 1.79286 11.7071C1.65301 11.5673 1.55777 11.3891 1.51919 11.1951C1.4806 11.0011 1.5004 10.8001 1.57609 10.6173C1.65178 10.4346 1.77995 10.2784 1.9444 10.1685C2.10885 10.0587 2.30219 10 2.49997 10C2.76519 10 3.01954 10.1054 3.20708 10.2929C3.39461 10.4804 3.49997 10.7348 3.49997 11ZM7.99997 6.00002C7.80219 6.00002 7.60885 5.94137 7.4444 5.83149C7.27995 5.7216 7.15178 5.56542 7.07609 5.3827C7.0004 5.19997 6.9806 4.99891 7.01919 4.80493C7.05777 4.61094 7.15301 4.43276 7.29286 4.29291C7.43272 4.15306 7.6109 4.05782 7.80488 4.01923C7.99886 3.98064 8.19993 4.00045 8.38265 4.07614C8.56538 4.15182 8.72156 4.28 8.83144 4.44445C8.94132 4.60889 8.99997 4.80223 8.99997 5.00002C8.99997 5.26523 8.89461 5.51959 8.70708 5.70712C8.51954 5.89466 8.26519 6.00002 7.99997 6.00002ZM13.5 12C13.3022 12 13.1088 11.9414 12.9444 11.8315C12.78 11.7216 12.6518 11.5654 12.5761 11.3827C12.5004 11.2 12.4806 10.9989 12.5192 10.8049C12.5578 10.6109 12.653 10.4328 12.7929 10.2929C12.9327 10.1531 13.1109 10.0578 13.3049 10.0192C13.4989 9.98064 13.6999 10.0004 13.8827 10.0761C14.0654 10.1518 14.2216 10.28 14.3314 10.4444C14.4413 10.6089 14.5 10.8022 14.5 11C14.5 11.2652 14.3946 11.5196 14.2071 11.7071C14.0195 11.8947 13.7652 12 13.5 12Z" fill="#EEEEF0"/>
</svg>
