<svg width="105" height="24" viewBox="0 0 105 24" fill="none" xmlns="http://www.w3.org/2000/svg">
<path d="M14.644 16.9285C14.4316 13.1215 9.70419 11.391 9.25176 11.2133C9.2333 11.204 9.2333 11.1853 9.24253 11.1666L14.1177 6.20903V5.67586C14.1177 5.59168 14.0438 5.51685 13.9607 5.51685H4.97675V2.53298V1.63501L1.66199 2.33655V2.84165H1.84666C1.84666 2.84165 2.65919 2.84165 2.65919 3.66479V5.50749H0.092333C0.0461665 5.50749 0 5.55426 0 5.60103V6.77026H2.66842C2.66842 6.77026 2.66842 8.01432 2.66842 9.46416V13.1215C2.66842 15.1139 3.93339 16.4982 6.14938 16.3112C6.62027 16.2737 7.05424 16.0867 7.42357 15.8435C7.58977 15.7312 7.69134 15.5535 7.69134 15.3477V14.721C6.97114 15.2074 6.36174 15.1793 6.36174 15.1793C4.95828 15.1793 4.98598 13.3741 4.98598 13.3741V6.77026H11.4493L6.79571 11.522C6.78647 12.1487 6.77724 12.6351 6.77724 12.6445C6.77724 12.6632 6.78647 12.6725 6.80494 12.6725C11.0707 13.4021 12.2249 16.1989 12.2249 17.0127C12.2249 17.0127 12.6865 20.9694 8.78087 21.2406C8.78087 21.2406 6.22324 21.3529 5.77081 20.3146C5.75234 20.2772 5.77081 20.2398 5.80774 20.221C6.23248 20.0246 6.51871 19.6411 6.51871 19.1267C6.51871 18.3596 6.05704 17.7329 5.08755 17.7329C4.30272 17.7329 3.65639 18.3596 3.65639 19.1267C3.65639 19.1267 3.28705 22.4566 8.77163 22.3631C15.0318 22.2508 14.644 16.9285 14.644 16.9285Z" fill="#fff"/>
<path d="M31.8586 16.3832V11.6015H27.4575V10.6975H31.8586V5.91579H32.8339V10.6975H37.235V11.6015H32.8339V16.3832H31.8586Z" fill="#fff"/>
<g clip-path="url(#clip0_18_1061)">
<path d="M100.582 10.0648C102.057 10.0648 102.989 11.125 102.989 12.5404H98.0755C98.1791 11.053 99.1954 10.0648 100.582 10.0648ZM100.631 18.2121C102.901 18.2121 104.173 16.9049 104.613 15.1704H102.935C102.767 15.7726 102.19 16.7968 100.666 16.7968C98.9537 16.7968 98.1051 15.4174 98.0706 13.8991H104.711C104.726 13.755 104.726 13.4926 104.726 13.2455C104.726 10.4508 103.251 8.64945 100.626 8.64945C98.0015 8.64945 96.3586 10.5949 96.3586 13.4205C96.3586 16.2461 97.8831 18.2121 100.626 18.2121M86.3088 17.9496H88.1885V6.98705H92.1009V5.3092H82.3915V6.98705H86.3039V17.9445L86.3088 17.9496ZM74.9911 10.0648C76.4663 10.0648 77.3987 11.125 77.3987 12.5404H72.4849C72.5885 11.053 73.6048 10.0648 74.9911 10.0648ZM75.0405 18.2121C77.3099 18.2121 78.5828 16.9049 79.0219 15.1704H77.3445C77.1767 15.7726 76.5995 16.7968 75.075 16.7968C73.363 16.7968 72.5194 15.4174 72.4849 13.8991H79.1255C79.1403 13.755 79.1403 13.4926 79.1403 13.2455C79.1403 10.4508 77.6651 8.64945 75.0405 8.64945C72.4158 8.64945 70.7729 10.5949 70.7729 13.4205C70.7729 16.2461 72.2974 18.2121 75.0405 18.2121ZM67.3638 12.1698V17.9496H69.0412V11.6912C69.0412 9.62219 67.7535 8.67004 66.16 8.67004C64.67 8.67004 63.7721 9.37515 63.3133 10.0648H63.2787V5.3092H61.6161V17.9445H63.2787V12.4117C63.2787 11.053 64.1914 10.1472 65.6173 10.1472C66.8556 10.1472 67.3638 10.9603 67.3638 12.1647M54.561 17.9445H56.4407V6.98705H60.3531V5.3092H50.6487V6.98705H54.561V17.9445Z" fill="#fff"/>
<path d="M93.0136 13.3124H91.5237V17.9497H93.0136V13.3124Z" fill="#fff"/>
<path d="M94.5036 8.67517H93.0137V13.3124H94.5036V8.67517Z" fill="#fff"/>
</g>
<defs>
<clipPath id="clip0_18_1061">
<rect width="54.2697" height="13.3816" fill="white" transform="translate(50.6487 5.3092)"/>
</clipPath>
</defs>
</svg>
