<svg width="55" height="14" viewBox="0 0 55 14" fill="none" xmlns="http://www.w3.org/2000/svg">
<mask id="mask0_3_832" style="mask-type:luminance" maskUnits="userSpaceOnUse" x="0" y="0" width="55" height="14">
<path d="M54.2697 0H0V13.3816H54.2697V0Z" fill="white"/>
</mask>
<g mask="url(#mask0_3_832)">
<path d="M49.9333 4.7556C51.4083 4.7556 52.3403 5.8158 52.3403 7.2312H47.4268C47.5304 5.7438 48.5467 4.7556 49.9333 4.7556ZM49.9823 12.9029C52.2523 12.9029 53.5243 11.5957 53.9643 9.8612H52.2863C52.1183 10.4634 51.5413 11.4876 50.0173 11.4876C48.305 11.4876 47.4564 10.1082 47.4219 8.5899H54.0623C54.0773 8.4458 54.0773 8.1834 54.0773 7.9363C54.0773 5.1416 52.6023 3.34025 49.9773 3.34025C47.3528 3.34025 45.7099 5.2857 45.7099 8.1113C45.7099 10.9369 47.2344 12.9029 49.9773 12.9029M35.6601 12.6404H37.5398V1.67785H41.4522V0H31.7428V1.67785H35.6552V12.6353L35.6601 12.6404ZM24.3424 4.7556C25.8176 4.7556 26.75 5.8158 26.75 7.2312H21.8362C21.9398 5.7438 22.9561 4.7556 24.3424 4.7556ZM24.3918 12.9029C26.6612 12.9029 27.9341 11.5957 28.3732 9.8612H26.6958C26.528 10.4634 25.9508 11.4876 24.4263 11.4876C22.7143 11.4876 21.8707 10.1082 21.8362 8.5899H28.4768C28.4916 8.4458 28.4916 8.1834 28.4916 7.9363C28.4916 5.1416 27.0164 3.34025 24.3918 3.34025C21.7671 3.34025 20.1242 5.2857 20.1242 8.1113C20.1242 10.9369 21.6487 12.9029 24.3918 12.9029ZM16.7151 6.8606V12.6404H18.3925V6.382C18.3925 4.31299 17.1048 3.36084 15.5113 3.36084C14.0213 3.36084 13.1234 4.06595 12.6646 4.7556H12.63V0H10.9674V12.6353H12.63V7.1025C12.63 5.7438 13.5427 4.838 14.9686 4.838C16.2069 4.838 16.7151 5.6511 16.7151 6.8555M3.9123 12.6353H5.792V1.67785H9.7044V0H0V1.67785H3.9123V12.6353Z" fill="white"/>
<path d="M42.3649 8.0032H40.875V12.6405H42.3649V8.0032Z" fill="white"/>
<path d="M43.8549 3.36597H42.365V8.0032H43.8549V3.36597Z" fill="white"/>
</g>
</svg>
