<svg id="Layer_1" data-name="Layer 1" xmlns="http://www.w3.org/2000/svg" xmlns:xlink="http://www.w3.org/1999/xlink" viewBox="0 0 357.56716 316.29185"><defs><style>.cls-1{fill:#eecfb5;}.cls-2{fill:#6d4b3d;}.cls-3{fill:#492a1b;}.cls-4{fill:#e0e0e0;}.cls-5{fill:#c1a68c;}.cls-6{fill:#e8e8e8;}.cls-7{fill:#eaeaea;}.cls-8{fill:#c1a78c;}.cls-9{fill:#351e13;}.cls-10{fill:#686868;}.cls-11{fill:#897667;}.cls-12{fill:#191919;}.cls-13{fill:#b7b7b7;}.cls-14{fill:#a5a4a4;}.cls-15{fill:#282828;}.cls-16{fill:#3f3e3d;}.cls-17{fill:url(#radial-gradient);}.cls-18{opacity:0.89;}.cls-19{fill:#31c5f0;}.cls-20{fill:url(#radial-gradient-2);}.cls-21{fill:#e8ddd4;}.cls-22{fill:#2489ca;}.cls-23{fill:#1070b3;}.cls-24{fill:#0877b9;}.cls-25{fill:#3c99d4;}.cls-26,.cls-29{opacity:0.93;}.cls-27{fill:#ff7f18;}.cls-28{fill:url(#radial-gradient-3);}.cls-29{fill:#2d2c2a;}.cls-30{fill:#7a7a7a;}.cls-31{fill:#515151;}</style><radialGradient id="radial-gradient" cx="210.94909" cy="366.08691" r="189.89645" gradientTransform="translate(0 11.18482) scale(1 0.96945)" gradientUnits="userSpaceOnUse"><stop offset="0" stop-color="#0bc0f7" stop-opacity="0.5"/><stop offset="0.15177" stop-color="#0ebdf2" stop-opacity="0.48263"/><stop offset="0.3127" stop-color="#16b2e2" stop-opacity="0.43108"/><stop offset="0.47794" stop-color="#24a1c7" stop-opacity="0.34525"/><stop offset="0.64608" stop-color="#388aa2" stop-opacity="0.22506"/><stop offset="0.81494" stop-color="#516b73" stop-opacity="0.07195"/><stop offset="0.88413" stop-color="#5d5d5d" stop-opacity="0"/></radialGradient><radialGradient id="radial-gradient-2" cx="109.27497" cy="204.50884" r="17.43835" gradientTransform="translate(-45.35111 38.26658) rotate(-15.4878)" gradientUnits="userSpaceOnUse"><stop offset="0" stop-color="#34364e" stop-opacity="0.98"/><stop offset="1" stop-color="#0c0824"/></radialGradient><radialGradient id="radial-gradient-3" cx="303.77293" cy="247.48017" r="21.2828" gradientTransform="translate(131.72161 -132.34976) rotate(26.90419)" gradientUnits="userSpaceOnUse"><stop offset="0" stop-color="#423325" stop-opacity="0.98"/><stop offset="1" stop-color="#1c0a00"/></radialGradient></defs><path id="Path_92" data-name="Path 92" d="M256.24116,321.94764H204.604a2.14267,2.14267,0,0,1-2.14268-2.14266V317.438a2.14268,2.14268,0,0,1,2.14266-2.14268h51.63653a2.14268,2.14268,0,0,1,2.14269,2.14266V319.805A2.148,2.148,0,0,1,256.24116,321.94764Z" transform="translate(-30.65075 -89.16351)"/><path id="Path_93" data-name="Path 93" class="cls-1" d="M246.48358,370.788c9.72439-16.6532,57.64345-75.1584,50.38389-81.91914s-41.38064-14.77169-54.85853-19.68929c-4.228-1.54263-10.18943-8.06629-10.95393-12.01455-1.9067-9.8472,1.0587-11.44732,1.9818-14.59728,2.78958-9.51909.88736-7.17993,4.49738-16.06238,2.48709.3553,9.976-9.90956,8.52646-17.83217-.53455-2.9215-10.66078-2.4075-2.66754-8.09213.00011-.00006,3.52287-10.48187,3.10774-12.93188-.91241-5.38483-12.71562-28.86377-43.76127-30.36359-18.74625-.90564-22.22357-.64123-32.44228,4.39063-10.994,5.41363-3.84723,27.55185-4.88312,37.42721-.18144,1.72974,4.72321,6.15177,1.21813,4.41069-2.17381-1.07979-1.39-1.23773-3.40331-3.36342-1.385-1.46229-5.13,3.817-2.7859,8.45714,2.79361,5.52989,3.433,13.154,6.31809,14.69393,1.05736.56439.8993-.67129,2.10513-.1163.57962.26678,1.10355,5.864,1.40863,7.3238.97728,4.67639,4.80427,13.03258,4.80429,13.0327.03348.25085.09463,1.12811.133,1.373,2.56223,16.36163,1.78574,20.474-.13887,21.84015-10.34353,7.34219-49.19482,13.02341-58.88747,21.02982s10.88625,58.56384,29.16744,65.24188S236.74929,387.43261,246.48358,370.788Z" transform="translate(-30.65075 -89.16351)"/><path id="Path_97" data-name="Path 97" class="cls-2" d="M166.9893,206.307c.19043,1.13007,4.1762-8.817,2.77832-7.784" transform="translate(-30.65075 -89.16351)"/><path id="Path_97-2" data-name="Path 97" class="cls-2" d="M172.93081,194.99474c5.39231-14.02756,20.91262-24.909,25.97857-19.81791,1.04652,1.05512,3.07688-4.0029,7.62881-.5643,3.41345,2.57465,9.19378,6.9496,13.93689,4.73286,2.19295-1.03,4.65469-1.07459,5.80241-.255.83089.59534,4.626-.78918,6.93543,7.82386.864,3.23083,1.53341,10.11018,6.41743,9.1305,3.37376-.68139-.47893-2.39222.6675,5.56255.92216,6.41217-.15542.07594.302-.878,3.99251-8.32686,5.57508-5.4168,3.50312-14.80613-1.26454-5.73041-.06718-23.90276-13.68067-29.783-13.61283-5.88758-41.991-6.13116-41.991-6.13116,2.2729-9.21487-13.14669-7.14386-19.94193-.92209-13.94669,12.76965-14.26116,9.77585-15.43062,21.68377-.2219,2.2594-.336,4.18282-.3566,5.83524-.02391,1.91886-.41091,8.81533.74642,10.138.48034.549.24855-2.81337.96068-1.71549,2.13637,3.29366,5.873,5.06491,8.79651,13.41907" transform="translate(-30.65075 -89.16351)"/><path id="Path_97-3" data-name="Path 97" class="cls-2" d="M183.30067,184.1601" transform="translate(-30.65075 -89.16351)"/><path id="Path_111" data-name="Path 111" class="cls-3" d="M198.12573,176.75456" transform="translate(-30.65075 -89.16351)"/><path id="Path_111-2" data-name="Path 111" class="cls-3" d="M211.41506,175.17683" transform="translate(-30.65075 -89.16351)"/><path id="Path_112" data-name="Path 112" class="cls-3" d="M209.621,193.0009" transform="translate(-30.65075 -89.16351)"/><path id="Path_113" data-name="Path 113" class="cls-3" d="M212.41989,184.82845" transform="translate(-30.65075 -89.16351)"/><circle id="Ellipse_3" data-name="Ellipse 3" class="cls-4" cx="175.44528" cy="266.82789" r="19.78417"/><g id="Layer_2" data-name="Layer 2"><path id="Path_115" data-name="Path 115" class="cls-5" d="M173.39964,266.187c4.7712-5.96472,2.2292-18.12193,1.6796-22.645-.06672-.54906,17.37513,20.45355,20.47413,22.23649,3.73761.59536,15.68638,3.47753,20.147.12164s13.46838-15.50619,13.46838-15.50619c.22424.03308,3.14194,12.34144,9.27547,16.978,3.17524,2.40025-3.56626,17.43255-8.01832,19.19354s-38.26448,1.4454-42.11853-.4234S170.65179,269.62225,173.39964,266.187Z" transform="translate(-30.65075 -89.16351)"/></g><path id="Path_116" data-name="Path 116" class="cls-6" d="M198.92524,282.28844c.07475.04166.1495.09128.22424.1409l6.52,4.76761c1.1124.8064,4.85492,4.37427,5.78156,3.35987l29.19754-33.371a2.66928,2.66928,0,0,1,4.34356.55633l6.82819,6.43356a10.196,10.196,0,0,0,2.666,2.46312l42.0114,12.42743c2.525,1.07959,9.31445,10.54984,6.536,10.54984-32.23962,0-61.15708,115.13761-93.39671,115.13761-15.0531,0-41.32793-2.02357-63.21961.70161l-41.14367-9.55115c-25.24742-54.37907.02831-100.67808-2.61718-100.67808-.22606.01141,1.953-9.59732,3.16609-10.3921,3.8279-2.50793,45.40838-14.68012,45.40838-14.68012.67343-.25989.57481-2.73423.81941-3.41337l12.05207-9.27252a2.656,2.656,0,0,1,4.29989-.93869" transform="translate(-30.65075 -89.16351)"/><path id="Path_117" data-name="Path 117" class="cls-7" d="M377.61807,199.16831" transform="translate(-30.65075 -89.16351)"/><path id="Path_118" data-name="Path 118" class="cls-8" d="M201.89281,217.70483c-1.09071-4.22489-.01653-4.73455-5.24918-6.60333a19.58726,19.58726,0,0,0-10.26619-1.33691,77.872,77.872,0,0,0-8.5052,1.27075c-1.323.2157-2.77523,4.09841,2.26691,4.08187C192.548,215.0729,204.65811,228.41632,201.89281,217.70483Z" transform="translate(-30.65075 -89.16351)"/><path id="Path_119" data-name="Path 119" class="cls-8" d="M211.04446,221.37294c-2.85712,1.69416-2.02672-9.84466,1.8187-10.75822,9.1449-2.1764,7.98988-1.98457,13.073-2.1764,4.76759-.18259,6.173,7.0274,6.02113,7.28521C226.36878,217.11934,223.04714,214.247,211.04446,221.37294Z" transform="translate(-30.65075 -89.16351)"/><path class="cls-9" d="M170.35293,216.40369c-.39152-1.78255-2.01367-5.16121-3.04535-8.68318-2.15737-7.3648-11.39529-20.60284-10.95181-20.36307.67681.36593,8.61159,4.01288,8.62271,4.48451.01594.67638,4.32859,13.02634,5.73262,20.05336C171.03927,213.53777,170.6185,217.61282,170.35293,216.40369Z" transform="translate(-30.65075 -89.16351)"/><path class="cls-9" d="M239.03364,216.25564s1.41526-4.76093,2.75963-8.85729c.441-1.34389,3.17762-11.55428,6.48075-16.8605,4.6666-7.49652-3.202-32.56952-14.30577-39.48136-.18648-.11608-5.23636-2.662-9.44743-4.91266a54.48214,54.48214,0,0,0-9.63987-3.90494c-1.09055-.25036-31.02539-6.81487-26.33387,8.05977,1.22615,3.88757,7.61853,25.93023,10.13354,34.25177.627,2.0747,5.75273-5.11884,16.23458-3.33094,6.4581,1.10163,13.63436,3.91083,14.53567,8.53a41.0683,41.0683,0,0,0,2.58874,8.051c.68755,1.31153.64754-3.8612,1.285-3.32635.74584.6258,1.73933,4.08977,3.58758,3.747,1.178-.21844-.06747.988,1.38154,2.64294.91938,1.05.56949,1.20843.65055,2.05081,0,0-.00575.49869-.01562.63976a22.3874,22.3874,0,0,0-.01089,3.00725c0,.00012.49636.54945.40493,2.25605-.03119.5822-.19825,2.63119-.28923,4.7435C238.93687,215.80459,238.3587,216.93058,239.03364,216.25564Z" transform="translate(-30.65075 -89.16351)"/><path class="cls-9" d="M175.07924,243.542s17.32847,19.13529,19.45407,20.258,17.13791,2.12195,19.58308.71676c1.92592-1.10675,17.3026-18.39788,17.3026-18.39788s.33118,13.26217,1.07175,14.53157c2.11575,3.62659-14.74111,7.30167-15.24147,7.49083-2.44226.92333-19.65059-.29828-23.32909-3.07688C188.92354,261.29013,175.07924,243.542,175.07924,243.542Z" transform="translate(-30.65075 -89.16351)"/><path class="cls-2" d="M183.30067,204.37256" transform="translate(-30.65075 -89.16351)"/><path class="cls-2" d="M194.03656,190.14752" transform="translate(-30.65075 -89.16351)"/><path class="cls-6" d="M283.80386,257.05463" transform="translate(-30.65075 -89.16351)"/><path class="cls-6" d="M249.40671,242.51773" transform="translate(-30.65075 -89.16351)"/><polyline class="cls-9" points="177.896 201.422 178.955 199.518 141.102 170.246"/><path class="cls-9" d="M184.96932,182.99443" transform="translate(-30.65075 -89.16351)"/><path class="cls-9" d="M191.71529,209.34862" transform="translate(-30.65075 -89.16351)"/><path class="cls-9" d="M205.96192,246.99156" transform="translate(-30.65075 -89.16351)"/><path class="cls-9" d="M217.42954,247.90333" transform="translate(-30.65075 -89.16351)"/><path class="cls-4" d="M181.76459,334.72527" transform="translate(-30.65075 -89.16351)"/><path class="cls-10" d="M215.75079,341.37381" transform="translate(-30.65075 -89.16351)"/><path class="cls-11" d="M210.084,216.11172c-1.63066,0-.63408,7.43726,1.454,12.20081,1.12238,2.56049,1.21682,6.49509.32909,8.18652-.499.95081-1.76,1.26606-1.66457,1.49237a3.02619,3.02619,0,0,0,2.88535-.2234,13.32714,13.32714,0,0,0,2.04079-3.00978c1.64172-3.43517-6.007-16.3035-.81409-20.82235C215.02505,213.31758,210.154,216.11172,210.084,216.11172Z" transform="translate(-30.65075 -89.16351)"/><path class="cls-11" d="M211.28505,218.36951c-2.22673,8.60766-2.81061-4.7635.02165-6.75617,2.22674-1.56664,15.84088-4.4497,17.07608-1.7586C228.75537,210.66644,213.54962,209.6156,211.28505,218.36951Z" transform="translate(-30.65075 -89.16351)"/><path class="cls-9" d="M215.056,282.30386s9.6222-24.8956,15.74422-27.15172c1.408-.5189,1.90065,1.26257,3.72769,5.74449a240.96225,240.96225,0,0,1-18.22053,21.40723Z" transform="translate(-30.65075 -89.16351)"/><path class="cls-12" d="M238.44424,252.25476" transform="translate(-30.65075 -89.16351)"/><path class="cls-9" d="M181.48486,179.05371c2.88149-22.76526,19.8722-21.08472,17.85685-3.87689-.49983.25525.25862,8.9058-.6022,9.34787-1.41738.72791-2.38712-3.46963-3.421-3.72229-5.52532-1.35024-6.05186,1.27058-6.41246,2.192C183.30067,197.31826,187.93656,182.99443,181.48486,179.05371Z" transform="translate(-30.65075 -89.16351)"/><path class="cls-9" d="M183.10175,171.82031s-6.16217,11.87021-10.06608,13.83728A12.54629,12.54629,0,0,1,160.495,184.236c-3.31241-2.48628,4.16655,6.97208,4.16655,6.97208.52048.43188,2.52643,14.072,3.07236,14.16536,3.44524.58929,3.58285-5.954,6.76431-9.876.04871-.06,3.11735.824,6.75478-3.25934.00006-.00006,2.764-5.20327,3.5061-6.169a23.29092,23.29092,0,0,0,2.98091-4.785C188.98485,177.53333,183.94229,172.62213,183.10175,171.82031Z" transform="translate(-30.65075 -89.16351)"/><path class="cls-1" d="M184.21527,189.60248" transform="translate(-30.65075 -89.16351)"/><path class="cls-8" d="M200.95947,207.76013" transform="translate(-30.65075 -89.16351)"/><path class="cls-9" d="M211.62371,207.76758c1.21964-.57772,12.67683-3.35687,17.52044-1.00745.3572.17325,3.05989,3.09422,4.00435,4.07249.35717.37-1.2498-.41129-.883-.08354,1.69774,1.517,2.01168,1.6543.9534,1.16419-10.32751-4.7829-15.49127-1.68939-22.473-.06665-.84362.1961-.56071-3.75808-.34189-3.95065.09679-.08518.50775,1.043.57773,1.104C211.07791,209.08385,211.29409,207.92372,211.62371,207.76758Z" transform="translate(-30.65075 -89.16351)"/><path class="cls-11" d="M200.82569,218.966c2.16241,8.60768,2.10316-5.13505-.021-6.75613s-15.38332-4.44973-16.58285-1.75865C183.86,211.263,198.62653,210.21208,200.82569,218.966Z" transform="translate(-30.65075 -89.16351)"/><path class="cls-9" d="M201.31544,208.23688c-.0576.011.41344,1.73679.1072,1.53384-.2065-.13677-.5347-1.13357-.67339-1.344-.2912-.44178-13.29648-3.42511-19.62053-.66657-3.16923,1.38239-5.72073,4.73938-5.40577,5.16638.06428.08716.9893-.83906,1.32736-.94361.24006-.07422-.76339.7697-.38777.63011a8.29984,8.29984,0,0,0,1.33294-.70282c.30611-.11761-.08755.4096.21812.29082,5.53331-2.1499,12.33154-1.60695,12.33164-1.60695,2.70784.33984,9.75647,2.13657,10.78963,2.33823.77557.15137,2.03221-2.66782,1.29008-3.58366-.2624-.32385-.01437,1.15973-.20216.87891C202.07269,209.704,201.41533,208.21771,201.31544,208.23688Z" transform="translate(-30.65075 -89.16351)"/><path class="cls-13" d="M207.73994,296.33834c-1.76109.01267,38.4622-43.73985,35.20266-37.784-.57973,1.05929,7.3817,2.062,11.90294,10.71035.3.57378,35.3035,8.001,45.66171,16.28416,1.75722,1.40519,4.3245,11.1262,4.0289,11.147-.17017.012-1.74286-.277-1.74286-.277-.51875,0-48.50329.187-59.16161.04794" transform="translate(-30.65075 -89.16351)"/><path class="cls-14" d="M208.4402,287.72891c15.069-18.81482,24.42486-30.219,26.08774-31.916a4.86986,4.86986,0,0,1,2.14816-1.33417,5.37368,5.37368,0,0,1,3.3452.27533c4.66255,1.72852,7.54772,4.52013,12.26264,7.88589.52276.37318-.58848.868.07512,1.16741,4.06238,1.83289,19.5311,5.95535,32.66208,9.50427l8.65331,2.93594,10.4327,6.64222s1.5833.70369,5.64758,10.93862c.29431.74115,16.32739,81.1026.8203,98.07262l-48.65038,13.55437Z" transform="translate(-30.65075 -89.16351)"/><polyline class="cls-9" points="139.594 193.14 141.773 193.14 121.487 177.606"/><polyline class="cls-9" points="201.623 192.901 200.37 192.901 221.546 174.259"/><path class="cls-1" d="M263.04712,263.73053" transform="translate(-30.65075 -89.16351)"/><polygon class="cls-15" points="201.433 169.391 206.505 165.297 201.132 165.654 201.433 169.391"/><path class="cls-16" d="M175.37144,262.20865c-.94194-.28925-6.88212-5.65034-6.88212-5.65034s7.457.63161,7.7447-.15077C176.30761,256.39875,175.7964,262.33914,175.37144,262.20865Z" transform="translate(-30.65075 -89.16351)"/><path class="cls-16" d="M162.5288,246.99156" transform="translate(-30.65075 -89.16351)"/><path class="cls-6" d="M217.14417,282.57215s12.19939-17.93471,12.42036-18.27473c.47425-.72976,2.26423-3.211.70266-3.09172-1.12.08556-2.46687,2.17226-2.46687,2.17226L212.734,282.57215Z" transform="translate(-30.65075 -89.16351)"/><path class="cls-11" d="M207.80728,273.43689c.85292-.68268-1.19369-5.45775.46562-5.21709l4.82592.21533c.50583.95218-3.32482,4.89083-3.54624,5.64251-.31224,1.06-2.21763,1.11612-2.68606,1.188-.82445.12647-1.674.04673-1.69649-.11816C205.13388,274.88242,207.46974,273.70706,207.80728,273.43689Z" transform="translate(-30.65075 -89.16351)"/><path class="cls-9" d="M203.2263,273.76541" transform="translate(-30.65075 -89.16351)"/><path id="Path_120" data-name="Path 120" class="cls-11" d="M202.34021,236.88039c1.329.72768,3.98889,2.5867,7.37786,1.20014,7.844-3.55854,1.08108,2.53746-1.53523,2.53746S199.85685,235.50112,202.34021,236.88039Z" transform="translate(-30.65075 -89.16351)"/><path class="cls-2" d="M197.64007,165.02362c-2.52416-10.60332-7.67139-17.89049-7.721-19.75129.29446-5.64507,7.3542-5.24913,11.34687-3.82207s39.62455,30.68665,17.38229,21.95735S200.16423,175.627,197.64007,165.02362Z" transform="translate(-30.65075 -89.16351)"/><path id="Path_118-2" data-name="Path 118" class="cls-8" d="M217.46652,246.48878c-2.89716-1.10118-6.1653-3.3042-7.47088-2.35878-2.85416,2.06681-2.16962.28911-4.0844-.09843-3.53042-.71454-.8339,2.14255-10.22375,2.61023-1.76272.0878-3.77435.61205-.561,1.1221C203.4935,249.092,220.986,247.82652,217.46652,246.48878Z" transform="translate(-30.65075 -89.16351)"/><path class="cls-17" d="M105.27372,395.90421l-74.623-92.52253L71.9911,89.16351,262.5862,90.2373,388.21791,199.76239,372.19305,321.83957l-65.40211,74.68789c.08524.64243,4.72884-106.573-10.93381-104.757-14.12372,1.63753-181.01816-5.24953-188.548,2.2803C99.563,301.79682,105.90867,362.39429,105.27372,395.90421Z" transform="translate(-30.65075 -89.16351)"/><g class="cls-18"><path class="cls-19" d="M109.92581,192.30924l.85085-.23576a15.74475,15.74475,0,0,1,19.37739,10.96865v0a15.74475,15.74475,0,0,1-10.96865,19.37739l-.85085.23576a15.74475,15.74475,0,0,1-19.37739-10.96864v0A15.74475,15.74475,0,0,1,109.92581,192.30924Z" transform="translate(-30.65075 -89.16351)"/><path class="cls-20" d="M110.23922,225.23316l17.849-4.94589a8.39685,8.39685,0,0,0,5.84971-10.33418l-4.71015-16.99828a8.39685,8.39685,0,0,0-10.33418-5.84971l-17.849,4.94589a8.39685,8.39685,0,0,0-5.8497,10.33418L99.905,219.38345A8.39685,8.39685,0,0,0,110.23922,225.23316Zm8.8887-23.53455c-1.12027.31042-1.34593.98369-1.21626,1.45164.14145.51048.4949.79428,2.21416,1.1577,2.52495.46084,3.50664,1.30344,3.92709,2.82077.62868,2.26884-.7634,3.96773-3.10319,4.61608a6.40175,6.40175,0,0,1-3.076.19578c-.111-.015-.14486-.082-.1763-.19548l-.57761-2.08452c-.03929-.14179.0198-.204.13877-.16059a5.46166,5.46166,0,0,0,3.082.04686c1.12028-.31042,1.45856-.908,1.28173-1.54618-.14145-.51048-.59335-.87387-2.22994-1.2144-2.28082-.40628-3.38852-1.1529-3.8404-2.78365-.50689-1.82931.50494-3.74345,2.98646-4.43107a6.7661,6.7661,0,0,1,2.64831-.30629.32585.32585,0,0,1,.22036.24428l.53831,1.94268c.03143.11343-.0198.204-.17344.20073a4.97064,4.97064,0,0,0-2.64414.04566Zm-11.49263,3.81317a1.17443,1.17443,0,0,0,1.44539.81844l.01692-.00469c1.65917-.45975,3.05788-1.47334,2.43312-3.728-.499-1.8009-1.87078-2.39807-3.75675-1.87548-.0827.02292-.16464.04627-.24506.06971a1.17422,1.17422,0,0,0-.80217,1.44117Zm-4.12117-5.77759c-.0275-.09925.1514-.22521.26477-.25663.89581-.294,2.23508-.69566,3.63892-1.08466,3.92795-1.08842,6.05665.64264,6.819,3.39367.998,3.60179-1.18284,5.87047-4.38758,6.75848l-.01827.005a1.12677,1.12677,0,0,0-.787,1.38721l1.20014,4.33116a.1506.1506,0,0,1-.123.21729l-2.16959.60118a.15064.15064,0,0,1-.21735-.123l-4.22009-15.22975Z" transform="translate(-30.65075 -89.16351)"/></g><path class="cls-21" d="M294.33923,262.98294" transform="translate(-30.65075 -89.16351)"/><path class="cls-22" d="M117.09469,127.36312s-.72044-.71488.37927-1.34316l2.59532-1.67322a.97706.97706,0,0,1,1.35234.12371l18.467,19.20486-1.20541,7.617s-.19944,1.19448-1.71346.81943Z" transform="translate(-30.65075 -89.16351)"/><path class="cls-23" d="M121.72554,133.12865l-6.18586,4.06071s-.62111.32545-.18232,1.15205l2.14937,2.68109s.495.73477,1.49127.14569l6.42106-3.44Z" transform="translate(-30.65075 -89.16351)"/><path class="cls-24" d="M131.2133,134.67177l11.11616-6.00349,1.13459-7.58656s-.16187-1.72055-1.711-1.0835l-15.09853,9.92319Z" transform="translate(-30.65075 -89.16351)"/><path class="cls-25" d="M136.96811,152.12194a1.38079,1.38079,0,0,0,1.21129.59806l8.33155-2.58542a1.65012,1.65012,0,0,0,1.08963-1.37662l3.59906-22.74268a1.5393,1.5393,0,0,0-.81041-1.50711l-6.18778-4.2892a1.8831,1.8831,0,0,0-2.44842-.22075s1.37385-.69257,1.711,1.0835l-4.75889,30.0717a1.38369,1.38369,0,0,1-.226.572c-.2325.3279-.66793.59936-1.56419.31513Z" transform="translate(-30.65075 -89.16351)"/><g class="cls-26"><path class="cls-27" d="M290.93465,204.03953l17.82272,9.04363a9.77387,9.77387,0,0,1,4.29332,13.13867l-8.55575,16.86124a9.77387,9.77387,0,0,1-13.13867,4.29331l-17.82272-9.04362a9.77388,9.77388,0,0,1-4.29332-13.13868l8.55574-16.86123A9.77388,9.77388,0,0,1,290.93465,204.03953Z" transform="translate(-30.65075 -89.16351)"/><path class="cls-28" d="M268.92462,238.36391l24.3849,12.37341a7.86546,7.86546,0,0,0,10.57327-3.455l11.90911-23.46987a7.86555,7.86555,0,0,0-3.455-10.57336l-24.38491-12.37341a7.86548,7.86548,0,0,0-10.57327,3.455l-11.9091,23.46987A7.86553,7.86553,0,0,0,268.92462,238.36391Zm32.06207-18.65258a1.71931,1.71931,0,0,1,2.03937-.96814,1.803,1.803,0,0,1,.79526,3.21966,1.717,1.717,0,0,1-2.06342.19516A1.688,1.688,0,0,1,300.98669,219.71133Zm-12.02036,5.10458a.25622.25622,0,0,0,.36883-.17008c.47331-2.12379,1.32167-6.20408,1.84509-8.17751l-.032-.01624c-1.23846,1.63943-3.56016,4.2394-5.45523,6.34217a.25583.25583,0,0,0,.07837.40047Zm10.35057-1.37759a.18387.18387,0,0,1,.2897-.09486l2.51285,1.27508a.18384.18384,0,0,1,.09445.28978L295.79824,237.552c-.065.12812-.12957.176-.2896.09483l-2.48085-1.25883a.20156.20156,0,0,1-.10241-.3139l6.40752-12.62763-.016-.00812Zm-15.82055,1.86645-3.70386,4.16584c-.097.11188-.16129.11956-.32132.03836l-2.35282-1.19387c-.15922-.08079-.16763-.14489-.04006-.31885l.00417-.00506,12.62593-13.61989c.22636-.24781.53093-.59759.56-.6311a5.67755,5.67755,0,0,0,.57184-.699l3.27357,1.69157c.112.05684.14377.11325.1108.2577l-3.684,19.87345c-.033.14435-.1057.20829-.23373.14333l-2.65694-1.34819c-.128-.065-.19185-.13764-.16691-.266l.99344-4.80453a.91517.91517,0,0,0-.48209-1.00141l-4.498-2.28238Z" transform="translate(-30.65075 -89.16351)"/></g><path class="cls-29" d="M253.95359,130.55659a.591.591,0,0,0-.61314.55358.58394.58394,0,0,0,.55322.61312l.00036,0a7.061,7.061,0,0,1,5.68408,3.73722,6.56114,6.56114,0,0,1,.13314,6.40467,11.338,11.338,0,0,1-2.78073,2.96059,22.11922,22.11922,0,0,0-1.87795,1.71211,9.10956,9.10956,0,0,0-2.44322,4.74628,6.60791,6.60791,0,0,0,1.32438,5.18423A8.74281,8.74281,0,0,0,259.904,159.714h.06073a.5847.5847,0,0,0,.05956-1.16789,7.55034,7.55034,0,0,1-5.16437-2.7889,5.46328,5.46328,0,0,1-1.09781-4.2873,7.94157,7.94157,0,0,1,2.13489-4.132,21.33364,21.33364,0,0,1,1.77985-1.61985,12.39221,12.39221,0,0,0,3.04817-3.28292,7.72321,7.72321,0,0,0-.12963-7.541A8.23827,8.23827,0,0,0,253.95359,130.55659Zm24.19924,22.556a1.75166,1.75166,0,0,1-1.09618.97061l-14.49926,4.38306,8.26511-8.2651a.5486.5486,0,0,0,.04437-.06657,2.33578,2.33578,0,1,0-.8035-.80351.546.546,0,0,0-.06657.04438l-8.26511,8.26511,4.38307-14.49927a1.75181,1.75181,0,0,1,.97168-1.09547h0l8.97868-3.95328,6.04263,6.04145Zm-6.91344-5.84534a1.16788,1.16788,0,1,1,.00025,1.65163l-.00025-.00025A1.16788,1.16788,0,0,1,271.23939,147.26726Zm15.18794-4.64894-1.65138,1.65139a.58386.58386,0,0,1-.8257,0l-.82569-.82569-6.60671-6.60088-.8257-.82569a.58394.58394,0,0,1-.001-.82582l.001-.001,1.65256-1.65139a.57575.57575,0,0,1,.41226-.17051.58392.58392,0,0,1,.41343.17051l8.25693,8.26161a.57575.57575,0,0,1,.17051.41226A.58385.58385,0,0,1,286.42733,142.61832Z" transform="translate(-30.65075 -89.16351)"/><rect class="cls-30" x="71.78657" y="193.14036" width="207.31744" height="114.65142" rx="5.50019"/><path class="cls-13" d="M220.71362,339.62958A14.61875,14.61875,0,1,1,206.096,325.012,14.5497,14.5497,0,0,1,220.71362,339.62958Z" transform="translate(-30.65075 -89.16351)"/><rect class="cls-31" x="72.26165" y="307.31237" width="205.81071" height="8.72482" rx="2.76937"/></svg>