<svg width="16" height="16" viewBox="0 0 16 16" fill="none" xmlns="http://www.w3.org/2000/svg">
<path d="M4.47435 3.84188C4.44118 3.7423 4.37752 3.65568 4.29237 3.5943C4.20723 3.53292 4.10494 3.49989 3.99998 3.49989C3.89502 3.49989 3.79272 3.53292 3.70758 3.5943C3.62244 3.65568 3.55877 3.7423 3.5256 3.84188L1.0256 11.3419C1.00054 11.417 0.993709 11.4971 1.00566 11.5754C1.01761 11.6537 1.048 11.7281 1.09433 11.7924C1.14065 11.8566 1.20159 11.909 1.27212 11.9451C1.34265 11.9812 1.42075 12 1.49998 12H6.49998C6.57921 12 6.6573 11.9812 6.72783 11.9451C6.79836 11.909 6.8593 11.8566 6.90563 11.7924C6.95195 11.7281 6.98235 11.6537 6.99429 11.5754C7.00624 11.4971 6.99941 11.417 6.97435 11.3419L4.47435 3.84188ZM2.19373 11L3.99998 5.58125L5.80623 11H2.19373ZM13 4.75C13 4.10721 12.8094 3.47886 12.4523 2.9444C12.0951 2.40994 11.5876 1.99338 10.9937 1.74739C10.3998 1.50141 9.74637 1.43705 9.11593 1.56245C8.48549 1.68785 7.9064 1.99738 7.45188 2.4519C6.99736 2.90642 6.68783 3.48552 6.56242 4.11596C6.43702 4.7464 6.50138 5.39986 6.74737 5.99372C6.99335 6.58758 7.40991 7.09516 7.94437 7.45228C8.47883 7.80939 9.10719 8 9.74998 8C10.6116 7.99901 11.4377 7.65628 12.047 7.047C12.6563 6.43772 12.999 5.61165 13 4.75ZM7.49998 4.75C7.49998 4.30499 7.63194 3.86998 7.87917 3.49997C8.1264 3.12996 8.47781 2.84157 8.88894 2.67127C9.30007 2.50098 9.75247 2.45642 10.1889 2.54323C10.6254 2.63005 11.0263 2.84434 11.341 3.15901C11.6556 3.47368 11.8699 3.87459 11.9567 4.31105C12.0436 4.74751 11.999 5.19991 11.8287 5.61104C11.6584 6.02217 11.37 6.37357 11 6.62081C10.63 6.86804 10.195 7 9.74998 7C9.15324 7 8.58094 6.76295 8.15899 6.34099C7.73703 5.91903 7.49998 5.34674 7.49998 4.75ZM14 9H8.49998C8.36737 9 8.24019 9.05268 8.14642 9.14645C8.05265 9.24022 7.99998 9.36739 7.99998 9.5V13C7.99998 13.1326 8.05265 13.2598 8.14642 13.3536C8.24019 13.4473 8.36737 13.5 8.49998 13.5H14C14.1326 13.5 14.2598 13.4473 14.3535 13.3536C14.4473 13.2598 14.5 13.1326 14.5 13V9.5C14.5 9.36739 14.4473 9.24022 14.3535 9.14645C14.2598 9.05268 14.1326 9 14 9ZM13.5 12.5H8.99998V10H13.5V12.5Z" fill="#EEEEF0"/>
</svg>
